<?xml version="1.0" encoding="UTF-8" standalone="no"?>
<!-- Generator: Adobe Illustrator 23.1.0, SVG Export Plug-In . SVG Version: 6.00 Build 0)  -->

<svg
   xmlns:dc="http://purl.org/dc/elements/1.1/"
   xmlns:cc="http://creativecommons.org/ns#"
   xmlns:rdf="http://www.w3.org/1999/02/22-rdf-syntax-ns#"
   xmlns:svg="http://www.w3.org/2000/svg"
   xmlns="http://www.w3.org/2000/svg"
   xmlns:sodipodi="http://sodipodi.sourceforge.net/DTD/sodipodi-0.dtd"
   xmlns:inkscape="http://www.inkscape.org/namespaces/inkscape"
   version="1.1"
   id="Layer_1"
   x="0px"
   y="0px"
   viewBox="0 0 2560 1440"
   style="enable-background:new 0 0 2560 1440;"
   xml:space="preserve"
   sodipodi:docname="fondo-youtube.svg"
   inkscape:version="0.92.4 5da689c313, 2019-01-14"><metadata
   id="metadata584"><rdf:RDF><cc:Work
       rdf:about=""><dc:format>image/svg+xml</dc:format><dc:type
         rdf:resource="http://purl.org/dc/dcmitype/StillImage" /><dc:title></dc:title></cc:Work></rdf:RDF></metadata><defs
   id="defs582" /><sodipodi:namedview
   pagecolor="#ffffff"
   bordercolor="#666666"
   borderopacity="1"
   objecttolerance="10"
   gridtolerance="10"
   guidetolerance="10"
   inkscape:pageopacity="0"
   inkscape:pageshadow="2"
   inkscape:window-width="1904"
   inkscape:window-height="1006"
   id="namedview580"
   showgrid="false"
   showguides="false"
   inkscape:guide-bbox="true"
   inkscape:zoom="0.43317196"
   inkscape:cx="1337.6453"
   inkscape:cy="653.44539"
   inkscape:window-x="8"
   inkscape:window-y="42"
   inkscape:window-maximized="0"
   inkscape:current-layer="Layer_1"><sodipodi:guide
     position="369,1409.6"
     orientation="0,1"
     id="guide1391"
     inkscape:locked="false" /><sodipodi:guide
     position="497,1281.6"
     orientation="0,1"
     id="guide1393"
     inkscape:locked="false" /><sodipodi:guide
     position="625,1153.6"
     orientation="0,1"
     id="guide1395"
     inkscape:locked="false" /><sodipodi:guide
     position="369,1025.6"
     orientation="0,1"
     id="guide1397"
     inkscape:locked="false" /><sodipodi:guide
     position="497,897.6"
     orientation="0,1"
     id="guide1399"
     inkscape:locked="false" /><sodipodi:guide
     position="625,769.6"
     orientation="0,1"
     id="guide1401"
     inkscape:locked="false" /><sodipodi:guide
     position="369,641.6"
     orientation="0,1"
     id="guide1403"
     inkscape:locked="false" /><sodipodi:guide
     position="497,513.6"
     orientation="0,1"
     id="guide1405"
     inkscape:locked="false" /><sodipodi:guide
     position="625,385.6"
     orientation="0,1"
     id="guide1407"
     inkscape:locked="false" /><sodipodi:guide
     position="369,257.6"
     orientation="0,1"
     id="guide1409"
     inkscape:locked="false" /><sodipodi:guide
     position="497,129.6"
     orientation="0,1"
     id="guide1411"
     inkscape:locked="false" /></sodipodi:namedview>
<style
   type="text/css"
   id="style2">
	.st0{fill-rule:evenodd;clip-rule:evenodd;fill:#465971;}
	.st1{fill:#FF8160;}
	.st2{opacity:0.12;}
	.st3{fill:#FFFFFF;}
</style>
<rect
   id="fondo"
   class="st0"
   width="2560"
   height="1440"
   x="0"
   y="0"
   style="clip-rule:evenodd;fill:#465971;fill-rule:evenodd" />
<path
   class="st1"
   d="m 2351.9,932.4 h 65.1 v 65.3 c 0,22 -11,33 -32.7,33 H 2319 v -65.1 c 0,-22.4 11,-33.2 32.9,-33.2 z"
   id="path5"
   inkscape:connector-curvature="0"
   style="fill:#ff8160" />
<polygon
   class="st1"
   points="2319,1055.3 2417,1055.3 2368.1,1153.6 "
   id="polygon7"
   transform="translate(0,6)"
   style="fill:#ff8160" />
<path
   class="st1"
   d="m 2368.1,1189.3 c 27,0 48.9,22 48.9,49 0,27.1 -21.9,49.1 -48.9,49.1 -27,0 -48.9,-22 -48.9,-49.1 0,-27 21.9,-49 48.9,-49 z"
   id="path9"
   inkscape:connector-curvature="0"
   style="fill:#ff8160" />
<g
   class="st2"
   id="g577">
	<path
   class="st3"
   d="m -63.9,293.3 c 27,0 48.9,22 48.9,49 0,27.1 -21.9,49.1 -48.9,49.1 -27,0 -48.9,-22 -48.9,-49.1 0,-27 21.9,-49 48.9,-49 z"
   id="path11"
   inkscape:connector-curvature="0"
   style="fill:#ffffff" />
	<path
   class="st3"
   d="M -80.1,36.4 H -15 v 65.3 c 0,22 -11,33.1 -32.7,33.1 H -113 V 69.7 c 0,-22.5 11,-33.3 32.9,-33.3 z"
   id="path13"
   inkscape:connector-curvature="0"
   style="fill:#ffffff" />
	<polygon
   class="st3"
   points="-113,159.3 -15,159.3 -63.9,257.6 "
   id="polygon15"
   transform="translate(0,6)"
   style="fill:#ffffff" />
	<path
   class="st3"
   d="m 64.1,37.3 c 27,0 48.9,22 48.9,49.1 0,27.1 -21.9,49.1 -48.9,49.1 -27,0 -48.9,-22 -48.9,-49.1 0,-27.1 21.9,-49.1 48.9,-49.1 z"
   id="path17"
   inkscape:connector-curvature="0"
   style="fill:#ffffff" />
	<path
   class="st3"
   d="M 47.9,164.4 H 113 v 65.3 c 0,22 -11,33 -32.7,33 H 15 v -65.1 c 0,-22.4 11,-33.2 32.9,-33.2 z"
   id="path19"
   inkscape:connector-curvature="0"
   style="fill:#ffffff" />
	<polygon
   class="st3"
   points="15,287.3 113,287.3 64.1,385.6 "
   id="polygon21"
   transform="translate(0,6)"
   style="fill:#ffffff" />
	<path
   class="st3"
   d="m 192.1,293.18006 c 27,0 48.9,22 48.9,49.1 0,27.1 -21.9,49.1 -48.9,49.1 -27,0 -48.9,-22 -48.9,-49.1 0,-27.1 21.9,-49.1 48.9,-49.1 z"
   id="path23"
   inkscape:connector-curvature="0"
   style="fill:#ffffff" />
	<path
   class="st3"
   d="M 175.9,420.28006 H 241 v 65.3 c 0,22 -11,33 -32.7,33 H 143 v -65.1 c 0,-22.4 11,-33.2 32.9,-33.2 z"
   id="path25"
   inkscape:connector-curvature="0"
   style="fill:#ffffff" />
	<polygon
   class="st3"
   points="241,31.3 192.1,129.6 143,31.3 "
   id="polygon27"
   transform="translate(0,133.88006)"
   style="fill:#ffffff" />
	<path
   class="st3"
   d="m 320.1,165.41994 c 27,0 48.9,22 48.9,49 0,27.1 -21.9,49.1 -48.9,49.1 -27,0 -48.9,-22 -48.9,-49.1 0,-27 21.9,-49 48.9,-49 z"
   id="path29"
   inkscape:connector-curvature="0"
   style="fill:#ffffff" />
	<path
   class="st3"
   d="M 303.9,-91.48007 H 369 v 65.299996 c 0,22 -11,33.1 -32.7,33.1 H 271 v -65.1 c 0,-22.5 11,-33.299996 32.9,-33.299996 z"
   id="path31"
   inkscape:connector-curvature="0"
   style="fill:#ffffff" />
	<polygon
   class="st3"
   points="271,159.3 369,159.3 320.1,257.6 "
   id="polygon33"
   transform="translate(0,-121.88006)"
   style="fill:#ffffff" />
	<path
   class="st3"
   d="m 448.1,37.3 c 27,0 48.9,22 48.9,49.1 0,27.1 -21.9,49.1 -48.9,49.1 -27,0 -48.9,-22 -48.9,-49.1 0,-27.1 21.9,-49.1 48.9,-49.1 z"
   id="path35"
   inkscape:connector-curvature="0"
   style="fill:#ffffff" />
	<path
   class="st3"
   d="M 431.9,164.4 H 497 v 65.3 c 0,22 -11,33 -32.7,33 H 399 v -65.1 c 0,-22.4 11,-33.2 32.9,-33.2 z"
   id="path37"
   inkscape:connector-curvature="0"
   style="fill:#ffffff" />
	<polygon
   class="st3"
   points="399,287.3 497,287.3 448.1,385.6 "
   id="polygon39"
   transform="translate(0,6)"
   style="fill:#ffffff" />
	<path
   class="st3"
   d="m 576.1,293.18006 c 27,0 48.9,22 48.9,49.1 0,27.1 -21.9,49.1 -48.9,49.1 -27,0 -48.9,-22 -48.9,-49.1 0,-27.1 21.9,-49.1 48.9,-49.1 z"
   id="path41"
   inkscape:connector-curvature="0"
   style="fill:#ffffff" />
	<path
   class="st3"
   d="M 559.9,420.28006 H 625 v 65.3 c 0,22 -11,33 -32.7,33 H 527 v -65.1 c 0,-22.4 11,-33.2 32.9,-33.2 z"
   id="path43"
   inkscape:connector-curvature="0"
   style="fill:#ffffff" />
	<polygon
   class="st3"
   points="625,31.3 576.1,129.6 527,31.3 "
   id="polygon45"
   transform="translate(0,133.88006)"
   style="fill:#ffffff" />
	<path
   class="st3"
   d="m -63.9,677.3 c 27,0 48.9,22 48.9,49 0,27.1 -21.9,49.1 -48.9,49.1 -27,0 -48.9,-22 -48.9,-49.1 0,-27 21.9,-49 48.9,-49 z"
   id="path47"
   inkscape:connector-curvature="0"
   style="fill:#ffffff" />
	<path
   class="st3"
   d="M -80.1,420.4 H -15 v 65.3 c 0,22 -11,33 -32.7,33 H -113 v -65.1 c 0,-22.4 11,-33.2 32.9,-33.2 z"
   id="path49"
   inkscape:connector-curvature="0"
   style="fill:#ffffff" />
	<polygon
   class="st3"
   points="-113,543.3 -15,543.3 -63.9,641.6 "
   id="polygon51"
   transform="translate(0,6)"
   style="fill:#ffffff" />
	<path
   class="st3"
   d="m 64.1,421.3 c 27,0 48.9,22 48.9,49 0,27.1 -21.9,49.1 -48.9,49.1 -27,0 -48.9,-22 -48.9,-49.1 0,-27 21.9,-49 48.9,-49 z"
   id="path53"
   inkscape:connector-curvature="0"
   style="fill:#ffffff" />
	<path
   class="st3"
   d="M 47.9,548.4 H 113 v 65.3 c 0,22 -11,33 -32.7,33 H 15 v -65.1 c 0,-22.4 11,-33.2 32.9,-33.2 z"
   id="path55"
   inkscape:connector-curvature="0"
   style="fill:#ffffff" />
	<polygon
   class="st3"
   points="15,671.3 113,671.3 64.1,769.6 "
   id="polygon57"
   transform="translate(0,6)"
   style="fill:#ffffff" />
	<path
   class="st3"
   d="m 192.1,677.18006 c 27,0 48.9,22 48.9,49 0,27.1 -21.9,49.1 -48.9,49.1 -27,0 -48.9,-22 -48.9,-49.1 0,-27 21.9,-49 48.9,-49 z"
   id="path59"
   inkscape:connector-curvature="0"
   style="fill:#ffffff" />
	<path
   class="st3"
   d="M 175.9,804.28006 H 241 v 65.3 c 0,22 -11,33 -32.7,33 H 143 v -65.1 c 0,-22.4 11,-33.2 32.9,-33.2 z"
   id="path61"
   inkscape:connector-curvature="0"
   style="fill:#ffffff" />
	<polygon
   class="st3"
   points="241,415.3 192.1,513.6 143,415.3 "
   id="polygon63"
   transform="translate(0,133.88006)"
   style="fill:#ffffff" />
	<path
   class="st3"
   d="m 320.1,549.41994 c 27,0 48.9,22 48.9,49 0,27.1 -21.9,49.1 -48.9,49.1 -27,0 -48.9,-22 -48.9,-49.1 0,-27 21.9,-49 48.9,-49 z"
   id="path65"
   inkscape:connector-curvature="0"
   style="fill:#ffffff" />
	<path
   class="st3"
   d="M 303.9,292.51994 H 369 v 65.3 c 0,22 -11,33 -32.7,33 H 271 v -65.1 c 0,-22.4 11,-33.2 32.9,-33.2 z"
   id="path67"
   inkscape:connector-curvature="0"
   style="fill:#ffffff" />
	<polygon
   class="st3"
   points="271,543.3 369,543.3 320.1,641.6 "
   id="polygon69"
   transform="translate(0,-121.88006)"
   style="fill:#ffffff" />
	<path
   class="st3"
   d="m 448.1,421.3 c 27,0 48.9,22 48.9,49 0,27.1 -21.9,49.1 -48.9,49.1 -27,0 -48.9,-22 -48.9,-49.1 0,-27 21.9,-49 48.9,-49 z"
   id="path71"
   inkscape:connector-curvature="0"
   style="fill:#ffffff" />
	<path
   class="st3"
   d="M 431.9,548.4 H 497 v 65.3 c 0,22 -11,33 -32.7,33 H 399 v -65.1 c 0,-22.4 11,-33.2 32.9,-33.2 z"
   id="path73"
   inkscape:connector-curvature="0"
   style="fill:#ffffff" />
	<polygon
   class="st3"
   points="399,671.3 497,671.3 448.1,769.6 "
   id="polygon75"
   transform="translate(0,6)"
   style="fill:#ffffff" />
	<path
   class="st3"
   d="m 576.1,677.18006 c 27,0 48.9,22 48.9,49 0,27.1 -21.9,49.1 -48.9,49.1 -27,0 -48.9,-22 -48.9,-49.1 0,-27 21.9,-49 48.9,-49 z"
   id="path77"
   inkscape:connector-curvature="0"
   style="fill:#ffffff" />
	<path
   class="st3"
   d="M 559.9,804.28006 H 625 v 65.3 c 0,22 -11,33 -32.7,33 H 527 v -65.1 c 0,-22.4 11,-33.2 32.9,-33.2 z"
   id="path79"
   inkscape:connector-curvature="0"
   style="fill:#ffffff" />
	<polygon
   class="st3"
   points="625,415.3 576.1,513.6 527,415.3 "
   id="polygon81"
   transform="translate(0,133.88006)"
   style="fill:#ffffff" />
	<path
   class="st3"
   d="m -63.9,1061.3 c 27,0 48.9,22 48.9,49 0,27.1 -21.9,49.1 -48.9,49.1 -27,0 -48.9,-22 -48.9,-49.1 0,-27 21.9,-49 48.9,-49 z"
   id="path83"
   inkscape:connector-curvature="0"
   style="fill:#ffffff" />
	<path
   class="st3"
   d="M -80.1,804.4 H -15 v 65.3 c 0,22 -11,33 -32.7,33 H -113 v -65.1 c 0,-22.4 11,-33.2 32.9,-33.2 z"
   id="path85"
   inkscape:connector-curvature="0"
   style="fill:#ffffff" />
	<polygon
   class="st3"
   points="-113,927.3 -15,927.3 -63.9,1025.6 "
   id="polygon87"
   transform="translate(0,6)"
   style="fill:#ffffff" />
	<path
   class="st3"
   d="m 64.1,805.3 c 27,0 48.9,22 48.9,49 0,27.1 -21.9,49.1 -48.9,49.1 -27,0 -48.9,-22 -48.9,-49.1 0,-27 21.9,-49 48.9,-49 z"
   id="path89"
   inkscape:connector-curvature="0"
   style="fill:#ffffff" />
	<path
   class="st3"
   d="M 47.9,932.4 H 113 v 65.3 c 0,22 -11,33 -32.7,33 H 15 v -65.1 c 0,-22.4 11,-33.2 32.9,-33.2 z"
   id="path91"
   inkscape:connector-curvature="0"
   style="fill:#ffffff" />
	<polygon
   class="st3"
   points="15,1055.3 113,1055.3 64.1,1153.6 "
   id="polygon93"
   transform="translate(0,6)"
   style="fill:#ffffff" />
	<path
   class="st3"
   d="m 192.1,1061.1809 c 27,0 48.9,22 48.9,49 0,27.1 -21.9,49.1 -48.9,49.1 -27,0 -48.9,-22 -48.9,-49.1 0,-27 21.9,-49 48.9,-49 z"
   id="path95"
   inkscape:connector-curvature="0"
   style="fill:#ffffff" />
	<path
   class="st3"
   d="M 175.9,1188.2809 H 241 v 65.3 c 0,22 -11,33.1 -32.7,33.1 H 143 v -65.1 c 0,-22.5 11,-33.3 32.9,-33.3 z"
   id="path97"
   inkscape:connector-curvature="0"
   style="fill:#ffffff" />
	<polygon
   class="st3"
   points="241,799.3 192.1,897.6 143,799.3 "
   id="polygon99"
   transform="translate(0,133.88006)"
   style="fill:#ffffff" />
	<path
   class="st3"
   d="m 320.1,933.41938 c 27,0 48.9,22 48.9,49 0,27.09972 -21.9,49.09972 -48.9,49.09972 -27,0 -48.9,-22 -48.9,-49.09972 0,-27 21.9,-49 48.9,-49 z"
   id="path101"
   inkscape:connector-curvature="0"
   style="fill:#ffffff" />
	<path
   class="st3"
   d="M 303.9,676.51994 H 369 v 65.3 c 0,21.99944 -11,32.99944 -32.7,32.99944 H 271 v -65.09944 c 0,-22.4 11,-33.2 32.9,-33.2 z"
   id="path103"
   inkscape:connector-curvature="0"
   style="fill:#ffffff" />
	<polygon
   class="st3"
   points="271,927.3 369,927.3 320.1,1025.6 "
   id="polygon105"
   transform="translate(0,-121.88006)"
   style="fill:#ffffff" />
	<path
   class="st3"
   d="m 448.1,805.3 c 27,0 48.9,22 48.9,49 0,27.1 -21.9,49.1 -48.9,49.1 -27,0 -48.9,-22 -48.9,-49.1 0,-27 21.9,-49 48.9,-49 z"
   id="path107"
   inkscape:connector-curvature="0"
   style="fill:#ffffff" />
	<path
   class="st3"
   d="M 431.9,932.4 H 497 v 65.3 c 0,22 -11,33 -32.7,33 H 399 v -65.1 c 0,-22.4 11,-33.2 32.9,-33.2 z"
   id="path109"
   inkscape:connector-curvature="0"
   style="fill:#ffffff" />
	<polygon
   class="st3"
   points="399,1055.3 497,1055.3 448.1,1153.6 "
   id="polygon111"
   transform="translate(0,6)"
   style="fill:#ffffff" />
	<path
   class="st3"
   d="m 576.1,1061.1809 c 27,0 48.9,22 48.9,49 0,27.1 -21.9,49.1 -48.9,49.1 -27,0 -48.9,-22 -48.9,-49.1 0,-27 21.9,-49 48.9,-49 z"
   id="path113"
   inkscape:connector-curvature="0"
   style="fill:#ffffff" />
	<path
   class="st3"
   d="M 559.9,1188.2809 H 625 v 65.3 c 0,22 -11,33.1 -32.7,33.1 H 527 v -65.1 c 0,-22.5 11,-33.3 32.9,-33.3 z"
   id="path115"
   inkscape:connector-curvature="0"
   style="fill:#ffffff" />
	<polygon
   class="st3"
   points="625,799.3 576.1,897.6 527,799.3 "
   id="polygon117"
   transform="translate(0,133.88006)"
   style="fill:#ffffff" />
	<path
   class="st3"
   d="m -63.9,1445.3 c 27,0 48.9,22 48.9,49 0,27.1 -21.9,49.1 -48.9,49.1 -27,0 -48.9,-22 -48.9,-49.1 0,-27 21.9,-49 48.9,-49 z"
   id="path119"
   inkscape:connector-curvature="0"
   style="fill:#ffffff" />
	<path
   class="st3"
   d="M -80.1,1188.4 H -15 v 65.3 c 0,22 -11,33.1 -32.7,33.1 H -113 v -65.1 c 0,-22.5 11,-33.3 32.9,-33.3 z"
   id="path121"
   inkscape:connector-curvature="0"
   style="fill:#ffffff" />
	<polygon
   class="st3"
   points="-113,1311.3 -15,1311.3 -63.9,1409.6 "
   id="polygon123"
   transform="translate(0,6)"
   style="fill:#ffffff" />
	<path
   class="st3"
   d="m 64.1,1189.3 c 27,0 48.9,22 48.9,49 0,27.1 -21.9,49.1 -48.9,49.1 -27,0 -48.9,-22 -48.9,-49.1 0,-27 21.9,-49 48.9,-49 z"
   id="path125"
   inkscape:connector-curvature="0"
   style="fill:#ffffff" />
	<path
   class="st3"
   d="M 47.9,1316.4 H 113 v 65.3 c 0,22 -11,33.1 -32.7,33.1 H 15 v -65.1 c 0,-22.5 11,-33.3 32.9,-33.3 z"
   id="path127"
   inkscape:connector-curvature="0"
   style="fill:#ffffff" />
	<polygon
   class="st3"
   points="15,1439.3 113,1439.3 64.1,1537.6 "
   id="polygon129"
   transform="translate(0,6)"
   style="fill:#ffffff" />
	<path
   class="st3"
   d="m 192.1,1445.1809 c 27,0 48.9,22 48.9,49 0,27.1 -21.9,49.1 -48.9,49.1 -27,0 -48.9,-22 -48.9,-49.1 0,-27 21.9,-49 48.9,-49 z"
   id="path131"
   inkscape:connector-curvature="0"
   style="fill:#ffffff" />
	<path
   class="st3"
   d="M 175.9,1572.2809 H 241 v 65.3 c 0,22 -11,33.1 -32.7,33.1 H 143 v -65.1 c 0,-22.5 11,-33.3 32.9,-33.3 z"
   id="path133"
   inkscape:connector-curvature="0"
   style="fill:#ffffff" />
	<polygon
   class="st3"
   points="241,1183.3 192.1,1281.6 143,1183.3 "
   id="polygon135"
   transform="translate(0,133.88006)"
   style="fill:#ffffff" />
	<path
   class="st3"
   d="m 320.1,1317.4191 c 27,0 48.9,22 48.9,49 0,27.1 -21.9,49.1 -48.9,49.1 -27,0 -48.9,-22 -48.9,-49.1 0,-27 21.9,-49 48.9,-49 z"
   id="path137"
   inkscape:connector-curvature="0"
   style="fill:#ffffff" />
	<path
   class="st3"
   d="M 303.9,1060.5191 H 369 v 65.3 c 0,22 -11,33.1 -32.7,33.1 H 271 v -65.1 c 0,-22.5 11,-33.3 32.9,-33.3 z"
   id="path139"
   inkscape:connector-curvature="0"
   style="fill:#ffffff" />
	<polygon
   class="st3"
   points="271,1311.3 369,1311.3 320.1,1409.6 "
   id="polygon141"
   transform="translate(0,-121.88006)"
   style="fill:#ffffff" />
	<path
   class="st3"
   d="m 448.1,1189.3 c 27,0 48.9,22 48.9,49 0,27.1 -21.9,49.1 -48.9,49.1 -27,0 -48.9,-22 -48.9,-49.1 0,-27 21.9,-49 48.9,-49 z"
   id="path143"
   inkscape:connector-curvature="0"
   style="fill:#ffffff" />
	<path
   class="st3"
   d="M 431.9,1316.4 H 497 v 65.3 c 0,22 -11,33.1 -32.7,33.1 H 399 v -65.1 c 0,-22.5 11,-33.3 32.9,-33.3 z"
   id="path145"
   inkscape:connector-curvature="0"
   style="fill:#ffffff" />
	<polygon
   class="st3"
   points="399,1439.3 497,1439.3 448.1,1537.6 "
   id="polygon147"
   transform="translate(0,6)"
   style="fill:#ffffff" />
	<path
   class="st3"
   d="m 576.1,1445.1809 c 27,0 48.9,22 48.9,49 0,27.1 -21.9,49.1 -48.9,49.1 -27,0 -48.9,-22 -48.9,-49.1 0,-27 21.9,-49 48.9,-49 z"
   id="path149"
   inkscape:connector-curvature="0"
   style="fill:#ffffff" />
	<path
   class="st3"
   d="M 559.9,1572.2809 H 625 v 65.3 c 0,22 -11,33.1 -32.7,33.1 H 527 v -65.1 c 0,-22.5 11,-33.3 32.9,-33.3 z"
   id="path151"
   inkscape:connector-curvature="0"
   style="fill:#ffffff" />
	<polygon
   class="st3"
   points="625,1183.3 576.1,1281.6 527,1183.3 "
   id="polygon153"
   transform="translate(0,133.88006)"
   style="fill:#ffffff" />
	<path
   class="st3"
   d="m 704.1,165.41994 c 27,0 48.9,22 48.9,49 0,27.1 -21.9,49.1 -48.9,49.1 -27,0 -48.9,-22 -48.9,-49.1 0,-27 21.9,-49 48.9,-49 z"
   id="path155"
   inkscape:connector-curvature="0"
   style="fill:#ffffff" />
	<path
   class="st3"
   d="M 687.9,-91.48007 H 753 v 65.299996 c 0,22 -11,33.1 -32.7,33.1 H 655 v -65.1 c 0,-22.5 11,-33.299996 32.9,-33.299996 z"
   id="path157"
   inkscape:connector-curvature="0"
   style="fill:#ffffff" />
	<polygon
   class="st3"
   points="655,159.3 753,159.3 704.1,257.6 "
   id="polygon159"
   transform="translate(0,-121.88006)"
   style="fill:#ffffff" />
	<path
   class="st3"
   d="m 832.1,37.3 c 27,0 48.9,22 48.9,49.1 0,27.1 -21.9,49.1 -48.9,49.1 -27,0 -48.9,-22 -48.9,-49.1 0,-27.1 21.9,-49.1 48.9,-49.1 z"
   id="path161"
   inkscape:connector-curvature="0"
   style="fill:#ffffff" />
	<path
   class="st3"
   d="M 815.9,164.4 H 881 v 65.3 c 0,22 -11,33 -32.7,33 H 783 v -65.1 c 0,-22.4 11,-33.2 32.9,-33.2 z"
   id="path163"
   inkscape:connector-curvature="0"
   style="fill:#ffffff" />
	<polygon
   class="st3"
   points="783,287.3 881,287.3 832.1,385.6 "
   id="polygon165"
   transform="translate(0,6)"
   style="fill:#ffffff" />
	<path
   class="st3"
   d="m 960.1,293.18006 c 27,0 48.9,22 48.9,49.1 0,27.1 -21.9,49.1 -48.9,49.1 -27,0 -48.9,-22 -48.9,-49.1 0,-27.1 21.9,-49.1 48.9,-49.1 z"
   id="path167"
   inkscape:connector-curvature="0"
   style="fill:#ffffff" />
	<path
   class="st3"
   d="m 943.9,420.28006 h 65.1 v 65.3 c 0,22 -11,33 -32.7,33 H 911 v -65.1 c 0,-22.4 11,-33.2 32.9,-33.2 z"
   id="path169"
   inkscape:connector-curvature="0"
   style="fill:#ffffff" />
	<polygon
   class="st3"
   points="1009,31.3 960.1,129.6 911,31.3 "
   id="polygon171"
   transform="translate(0,133.88006)"
   style="fill:#ffffff" />
	<path
   class="st3"
   d="m 1088.1,165.41994 c 27,0 48.9,22 48.9,49 0,27.1 -21.9,49.1 -48.9,49.1 -27,0 -48.9,-22 -48.9,-49.1 0,-27 21.9,-49 48.9,-49 z"
   id="path173"
   inkscape:connector-curvature="0"
   style="fill:#ffffff" />
	<path
   class="st3"
   d="m 1071.9,-91.48007 h 65.1 v 65.299996 c 0,22 -11,33.1 -32.7,33.1 H 1039 v -65.1 c 0,-22.5 11,-33.299996 32.9,-33.299996 z"
   id="path175"
   inkscape:connector-curvature="0"
   style="fill:#ffffff" />
	<polygon
   class="st3"
   points="1039,159.3 1137,159.3 1088.1,257.6 "
   id="polygon177"
   transform="translate(0,-121.88006)"
   style="fill:#ffffff" />
	<path
   class="st3"
   d="m 1216.1,37.3 c 27,0 48.9,22 48.9,49.1 0,27.1 -21.9,49.1 -48.9,49.1 -27,0 -48.9,-22 -48.9,-49.1 0,-27.1 21.9,-49.1 48.9,-49.1 z"
   id="path179"
   inkscape:connector-curvature="0"
   style="fill:#ffffff" />
	<path
   class="st3"
   d="m 1199.9,164.4 h 65.1 v 65.3 c 0,22 -11,33 -32.7,33 H 1167 v -65.1 c 0,-22.4 11,-33.2 32.9,-33.2 z"
   id="path181"
   inkscape:connector-curvature="0"
   style="fill:#ffffff" />
	<polygon
   class="st3"
   points="1167,287.3 1265,287.3 1216.1,385.6 "
   id="polygon183"
   transform="translate(0,6)"
   style="fill:#ffffff" />
	<path
   class="st3"
   d="m 1344.1,293.18006 c 27,0 48.9,22 48.9,49.1 0,27.1 -21.9,49.1 -48.9,49.1 -27,0 -48.9,-22 -48.9,-49.1 0,-27.1 21.9,-49.1 48.9,-49.1 z"
   id="path185"
   inkscape:connector-curvature="0"
   style="fill:#ffffff" />
	<path
   class="st3"
   d="m 1327.9,420.28006 h 65.1 v 65.3 c 0,22 -11,33 -32.7,33 H 1295 v -65.1 c 0,-22.4 11,-33.2 32.9,-33.2 z"
   id="path187"
   inkscape:connector-curvature="0"
   style="fill:#ffffff" />
	<polygon
   class="st3"
   points="1393,31.3 1344.1,129.6 1295,31.3 "
   id="polygon189"
   transform="translate(0,133.88006)"
   style="fill:#ffffff" />
	<path
   class="st3"
   d="m 704.1,549.41994 c 27,0 48.9,22 48.9,49 0,27.1 -21.9,49.1 -48.9,49.1 -27,0 -48.9,-22 -48.9,-49.1 0,-27 21.9,-49 48.9,-49 z"
   id="path191"
   inkscape:connector-curvature="0"
   style="fill:#ffffff" />
	<path
   class="st3"
   d="M 687.9,292.51994 H 753 v 65.3 c 0,22 -11,33 -32.7,33 H 655 v -65.1 c 0,-22.4 11,-33.2 32.9,-33.2 z"
   id="path193"
   inkscape:connector-curvature="0"
   style="fill:#ffffff" />
	<polygon
   class="st3"
   points="655,543.3 753,543.3 704.1,641.6 "
   id="polygon195"
   transform="translate(0,-121.88006)"
   style="fill:#ffffff" />
	<path
   class="st3"
   d="m 832.1,421.3 c 27,0 48.9,22 48.9,49 0,27.1 -21.9,49.1 -48.9,49.1 -27,0 -48.9,-22 -48.9,-49.1 0,-27 21.9,-49 48.9,-49 z"
   id="path197"
   inkscape:connector-curvature="0"
   style="fill:#ffffff" />
	<path
   class="st3"
   d="M 815.9,548.4 H 881 v 65.3 c 0,22 -11,33 -32.7,33 H 783 v -65.1 c 0,-22.4 11,-33.2 32.9,-33.2 z"
   id="path199"
   inkscape:connector-curvature="0"
   style="fill:#ffffff" />
	<polygon
   class="st3"
   points="783,671.3 881,671.3 832.1,769.6 "
   id="polygon201"
   transform="translate(0,6)"
   style="fill:#ffffff" />
	<path
   class="st3"
   d="m 960.1,677.18006 c 27,0 48.9,22 48.9,49 0,27.1 -21.9,49.1 -48.9,49.1 -27,0 -48.9,-22 -48.9,-49.1 0,-27 21.9,-49 48.9,-49 z"
   id="path203"
   inkscape:connector-curvature="0"
   style="fill:#ffffff" />
	<path
   class="st3"
   d="m 943.9,804.28006 h 65.1 v 65.3 c 0,22 -11,33 -32.7,33 H 911 v -65.1 c 0,-22.4 11,-33.2 32.9,-33.2 z"
   id="path205"
   inkscape:connector-curvature="0"
   style="fill:#ffffff" />
	<polygon
   class="st3"
   points="1009,415.3 960.1,513.6 911,415.3 "
   id="polygon207"
   transform="translate(0,133.88006)"
   style="fill:#ffffff" />
	<path
   class="st3"
   d="m 1088.1,549.41994 c 27,0 48.9,22 48.9,49 0,27.1 -21.9,49.1 -48.9,49.1 -27,0 -48.9,-22 -48.9,-49.1 0,-27 21.9,-49 48.9,-49 z"
   id="path209"
   inkscape:connector-curvature="0"
   style="fill:#ffffff" />
	<path
   class="st3"
   d="m 1071.9,292.51994 h 65.1 v 65.3 c 0,22 -11,33 -32.7,33 H 1039 v -65.1 c 0,-22.4 11,-33.2 32.9,-33.2 z"
   id="path211"
   inkscape:connector-curvature="0"
   style="fill:#ffffff" />
	<polygon
   class="st3"
   points="1039,543.3 1137,543.3 1088.1,641.6 "
   id="polygon213"
   transform="translate(0,-121.88006)"
   style="fill:#ffffff" />
	<path
   class="st3"
   d="m 1216.1,421.3 c 27,0 48.9,22 48.9,49 0,27.1 -21.9,49.1 -48.9,49.1 -27,0 -48.9,-22 -48.9,-49.1 0,-27 21.9,-49 48.9,-49 z"
   id="path215"
   inkscape:connector-curvature="0"
   style="fill:#ffffff" />
	<path
   class="st3"
   d="m 1199.9,548.4 h 65.1 v 65.3 c 0,22 -11,33 -32.7,33 H 1167 v -65.1 c 0,-22.4 11,-33.2 32.9,-33.2 z"
   id="path217"
   inkscape:connector-curvature="0"
   style="fill:#ffffff" />
	<polygon
   class="st3"
   points="1167,671.3 1265,671.3 1216.1,769.6 "
   id="polygon219"
   transform="translate(0,6)"
   style="fill:#ffffff" />
	<path
   class="st3"
   d="m 1344.1,677.18006 c 27,0 48.9,22 48.9,49 0,27.1 -21.9,49.1 -48.9,49.1 -27,0 -48.9,-22 -48.9,-49.1 0,-27 21.9,-49 48.9,-49 z"
   id="path221"
   inkscape:connector-curvature="0"
   style="fill:#ffffff" />
	<path
   class="st3"
   d="m 1327.9,804.28006 h 65.1 v 65.3 c 0,22 -11,33 -32.7,33 H 1295 v -65.1 c 0,-22.4 11,-33.2 32.9,-33.2 z"
   id="path223"
   inkscape:connector-curvature="0"
   style="fill:#ffffff" />
	<polygon
   class="st3"
   points="1393,415.3 1344.1,513.6 1295,415.3 "
   id="polygon225"
   transform="translate(0,133.88006)"
   style="fill:#ffffff" />
	<path
   class="st3"
   d="m 704.1,933.41938 c 27,0 48.9,22 48.9,49 0,27.09972 -21.9,49.09972 -48.9,49.09972 -27,0 -48.9,-22 -48.9,-49.09972 0,-27 21.9,-49 48.9,-49 z"
   id="path227"
   inkscape:connector-curvature="0"
   style="fill:#ffffff" />
	<path
   class="st3"
   d="M 687.9,676.51994 H 753 v 65.3 c 0,21.99944 -11,32.99944 -32.7,32.99944 H 655 v -65.09944 c 0,-22.4 11,-33.2 32.9,-33.2 z"
   id="path229"
   inkscape:connector-curvature="0"
   style="fill:#ffffff" />
	<polygon
   class="st3"
   points="655,927.3 753,927.3 704.1,1025.6 "
   id="polygon231"
   transform="translate(0,-121.88006)"
   style="fill:#ffffff" />
	<path
   class="st3"
   d="m 832.1,805.3 c 27,0 48.9,22 48.9,49 0,27.1 -21.9,49.1 -48.9,49.1 -27,0 -48.9,-22 -48.9,-49.1 0,-27 21.9,-49 48.9,-49 z"
   id="path233"
   inkscape:connector-curvature="0"
   style="fill:#ffffff" />
	<path
   class="st3"
   d="M 815.9,932.4 H 881 v 65.3 c 0,22 -11,33 -32.7,33 H 783 v -65.1 c 0,-22.4 11,-33.2 32.9,-33.2 z"
   id="path235"
   inkscape:connector-curvature="0"
   style="fill:#ffffff" />
	<polygon
   class="st3"
   points="783,1055.3 881,1055.3 832.1,1153.6 "
   id="polygon237"
   transform="translate(0,6)"
   style="fill:#ffffff" />
	<path
   class="st3"
   d="m 960.1,1061.1809 c 27,0 48.9,22 48.9,49 0,27.1 -21.9,49.1 -48.9,49.1 -27,0 -48.9,-22 -48.9,-49.1 0,-27 21.9,-49 48.9,-49 z"
   id="path239"
   inkscape:connector-curvature="0"
   style="fill:#ffffff" />
	<path
   class="st3"
   d="m 943.9,1188.2809 h 65.1 v 65.3 c 0,22 -11,33.1 -32.7,33.1 H 911 v -65.1 c 0,-22.5 11,-33.3 32.9,-33.3 z"
   id="path241"
   inkscape:connector-curvature="0"
   style="fill:#ffffff" />
	<polygon
   class="st3"
   points="1009,799.3 960.1,897.6 911,799.3 "
   id="polygon243"
   transform="translate(0,133.88006)"
   style="fill:#ffffff" />
	<path
   class="st3"
   d="m 1088.1,933.41938 c 27,0 48.9,22 48.9,49 0,27.09972 -21.9,49.09972 -48.9,49.09972 -27,0 -48.9,-22 -48.9,-49.09972 0,-27 21.9,-49 48.9,-49 z"
   id="path245"
   inkscape:connector-curvature="0"
   style="fill:#ffffff" />
	<path
   class="st3"
   d="m 1071.9,676.51994 h 65.1 v 65.3 c 0,21.99944 -11,32.99944 -32.7,32.99944 H 1039 v -65.09944 c 0,-22.4 11,-33.2 32.9,-33.2 z"
   id="path247"
   inkscape:connector-curvature="0"
   style="fill:#ffffff" />
	<polygon
   class="st3"
   points="1039,927.3 1137,927.3 1088.1,1025.6 "
   id="polygon249"
   transform="translate(0,-121.88006)"
   style="fill:#ffffff" />
	<path
   class="st3"
   d="m 1216.1,805.3 c 27,0 48.9,22 48.9,49 0,27.1 -21.9,49.1 -48.9,49.1 -27,0 -48.9,-22 -48.9,-49.1 0,-27 21.9,-49 48.9,-49 z"
   id="path251"
   inkscape:connector-curvature="0"
   style="fill:#ffffff" />
	<path
   class="st3"
   d="m 1199.9,932.4 h 65.1 v 65.3 c 0,22 -11,33 -32.7,33 H 1167 v -65.1 c 0,-22.4 11,-33.2 32.9,-33.2 z"
   id="path253"
   inkscape:connector-curvature="0"
   style="fill:#ffffff" />
	<polygon
   class="st3"
   points="1167,1055.3 1265,1055.3 1216.1,1153.6 "
   id="polygon255"
   transform="translate(0,6)"
   style="fill:#ffffff" />
	<path
   class="st3"
   d="m 1344.1,1061.1809 c 27,0 48.9,22 48.9,49 0,27.1 -21.9,49.1 -48.9,49.1 -27,0 -48.9,-22 -48.9,-49.1 0,-27 21.9,-49 48.9,-49 z"
   id="path257"
   inkscape:connector-curvature="0"
   style="fill:#ffffff" />
	<path
   class="st3"
   d="m 1327.9,1188.2809 h 65.1 v 65.3 c 0,22 -11,33.1 -32.7,33.1 H 1295 v -65.1 c 0,-22.5 11,-33.3 32.9,-33.3 z"
   id="path259"
   inkscape:connector-curvature="0"
   style="fill:#ffffff" />
	<polygon
   class="st3"
   points="1393,799.3 1344.1,897.6 1295,799.3 "
   id="polygon261"
   transform="translate(0,133.88006)"
   style="fill:#ffffff" />
	<path
   class="st3"
   d="m 704.1,1317.4191 c 27,0 48.9,22 48.9,49 0,27.1 -21.9,49.1 -48.9,49.1 -27,0 -48.9,-22 -48.9,-49.1 0,-27 21.9,-49 48.9,-49 z"
   id="path263"
   inkscape:connector-curvature="0"
   style="fill:#ffffff" />
	<path
   class="st3"
   d="M 687.9,1060.5191 H 753 v 65.3 c 0,22 -11,33.1 -32.7,33.1 H 655 v -65.1 c 0,-22.5 11,-33.3 32.9,-33.3 z"
   id="path265"
   inkscape:connector-curvature="0"
   style="fill:#ffffff" />
	<polygon
   class="st3"
   points="655,1311.3 753,1311.3 704.1,1409.6 "
   id="polygon267"
   transform="translate(0,-121.88006)"
   style="fill:#ffffff" />
	<path
   class="st3"
   d="m 832.1,1189.3 c 27,0 48.9,22 48.9,49 0,27.1 -21.9,49.1 -48.9,49.1 -27,0 -48.9,-22 -48.9,-49.1 0,-27 21.9,-49 48.9,-49 z"
   id="path269"
   inkscape:connector-curvature="0"
   style="fill:#ffffff" />
	<path
   class="st3"
   d="M 815.9,1316.4 H 881 v 65.3 c 0,22 -11,33.1 -32.7,33.1 H 783 v -65.1 c 0,-22.5 11,-33.3 32.9,-33.3 z"
   id="path271"
   inkscape:connector-curvature="0"
   style="fill:#ffffff" />
	<polygon
   class="st3"
   points="783,1439.3 881,1439.3 832.1,1537.6 "
   id="polygon273"
   transform="translate(0,6)"
   style="fill:#ffffff" />
	<path
   class="st3"
   d="m 960.1,1445.1809 c 27,0 48.9,22 48.9,49 0,27.1 -21.9,49.1 -48.9,49.1 -27,0 -48.9,-22 -48.9,-49.1 0,-27 21.9,-49 48.9,-49 z"
   id="path275"
   inkscape:connector-curvature="0"
   style="fill:#ffffff" />
	<path
   class="st3"
   d="m 943.9,1572.2809 h 65.1 v 65.3 c 0,22 -11,33.1 -32.7,33.1 H 911 v -65.1 c 0,-22.5 11,-33.3 32.9,-33.3 z"
   id="path277"
   inkscape:connector-curvature="0"
   style="fill:#ffffff" />
	<polygon
   class="st3"
   points="1009,1183.3 960.1,1281.6 911,1183.3 "
   id="polygon279"
   transform="translate(0,133.88006)"
   style="fill:#ffffff" />
	<path
   class="st3"
   d="m 1088.1,1317.4191 c 27,0 48.9,22 48.9,49 0,27.1 -21.9,49.1 -48.9,49.1 -27,0 -48.9,-22 -48.9,-49.1 0,-27 21.9,-49 48.9,-49 z"
   id="path281"
   inkscape:connector-curvature="0"
   style="fill:#ffffff" />
	<path
   class="st3"
   d="m 1071.9,1060.5191 h 65.1 v 65.3 c 0,22 -11,33.1 -32.7,33.1 H 1039 v -65.1 c 0,-22.5 11,-33.3 32.9,-33.3 z"
   id="path283"
   inkscape:connector-curvature="0"
   style="fill:#ffffff" />
	<polygon
   class="st3"
   points="1039,1311.3 1137,1311.3 1088.1,1409.6 "
   id="polygon285"
   transform="translate(0,-121.88006)"
   style="fill:#ffffff" />
	<path
   class="st3"
   d="m 1216.1,1189.3 c 27,0 48.9,22 48.9,49 0,27.1 -21.9,49.1 -48.9,49.1 -27,0 -48.9,-22 -48.9,-49.1 0,-27 21.9,-49 48.9,-49 z"
   id="path287"
   inkscape:connector-curvature="0"
   style="fill:#ffffff" />
	<path
   class="st3"
   d="m 1199.9,1316.4 h 65.1 v 65.3 c 0,22 -11,33.1 -32.7,33.1 H 1167 v -65.1 c 0,-22.5 11,-33.3 32.9,-33.3 z"
   id="path289"
   inkscape:connector-curvature="0"
   style="fill:#ffffff" />
	<polygon
   class="st3"
   points="1167,1439.3 1265,1439.3 1216.1,1537.6 "
   id="polygon291"
   transform="translate(0,6)"
   style="fill:#ffffff" />
	<path
   class="st3"
   d="m 1344.1,1445.1809 c 27,0 48.9,22 48.9,49 0,27.1 -21.9,49.1 -48.9,49.1 -27,0 -48.9,-22 -48.9,-49.1 0,-27 21.9,-49 48.9,-49 z"
   id="path293"
   inkscape:connector-curvature="0"
   style="fill:#ffffff" />
	<path
   class="st3"
   d="m 1327.9,1572.2809 h 65.1 v 65.3 c 0,22 -11,33.1 -32.7,33.1 H 1295 v -65.1 c 0,-22.5 11,-33.3 32.9,-33.3 z"
   id="path295"
   inkscape:connector-curvature="0"
   style="fill:#ffffff" />
	<polygon
   class="st3"
   points="1393,1183.3 1344.1,1281.6 1295,1183.3 "
   id="polygon297"
   transform="translate(0,133.88006)"
   style="fill:#ffffff" />
	<path
   class="st3"
   d="m 1472.1,165.41994 c 27,0 48.9,22 48.9,49 0,27.1 -21.9,49.1 -48.9,49.1 -27,0 -48.9,-22 -48.9,-49.1 0,-27 21.9,-49 48.9,-49 z"
   id="path299"
   inkscape:connector-curvature="0"
   style="fill:#ffffff" />
	<path
   class="st3"
   d="m 1455.9,-91.48007 h 65.1 v 65.299996 c 0,22 -11,33.1 -32.7,33.1 H 1423 v -65.1 c 0,-22.5 11,-33.299996 32.9,-33.299996 z"
   id="path301"
   inkscape:connector-curvature="0"
   style="fill:#ffffff" />
	<polygon
   class="st3"
   points="1423,159.3 1521,159.3 1472.1,257.6 "
   id="polygon303"
   transform="translate(0,-121.88006)"
   style="fill:#ffffff" />
	<path
   class="st3"
   d="m 1600.1,37.3 c 27,0 48.9,22 48.9,49.1 0,27.1 -21.9,49.1 -48.9,49.1 -27,0 -48.9,-22 -48.9,-49.1 0,-27.1 21.9,-49.1 48.9,-49.1 z"
   id="path305"
   inkscape:connector-curvature="0"
   style="fill:#ffffff" />
	<path
   class="st3"
   d="m 1583.9,164.4 h 65.1 v 65.3 c 0,22 -11,33 -32.7,33 H 1551 v -65.1 c 0,-22.4 11,-33.2 32.9,-33.2 z"
   id="path307"
   inkscape:connector-curvature="0"
   style="fill:#ffffff" />
	<polygon
   class="st3"
   points="1551,287.3 1649,287.3 1600.1,385.6 "
   id="polygon309"
   transform="translate(0,6)"
   style="fill:#ffffff" />
	<path
   class="st3"
   d="m 1728.1,293.18006 c 27,0 48.9,22 48.9,49.1 0,27.1 -21.9,49.1 -48.9,49.1 -27,0 -48.9,-22 -48.9,-49.1 0,-27.1 21.9,-49.1 48.9,-49.1 z"
   id="path311"
   inkscape:connector-curvature="0"
   style="fill:#ffffff" />
	<path
   class="st3"
   d="m 1711.9,420.28006 h 65.1 v 65.3 c 0,22 -11,33 -32.7,33 H 1679 v -65.1 c 0,-22.4 11,-33.2 32.9,-33.2 z"
   id="path313"
   inkscape:connector-curvature="0"
   style="fill:#ffffff" />
	<polygon
   class="st3"
   points="1777,31.3 1728.1,129.6 1679,31.3 "
   id="polygon315"
   transform="translate(0,133.88006)"
   style="fill:#ffffff" />
	<path
   class="st3"
   d="m 1472.1,549.41994 c 27,0 48.9,22 48.9,49 0,27.1 -21.9,49.1 -48.9,49.1 -27,0 -48.9,-22 -48.9,-49.1 0,-27 21.9,-49 48.9,-49 z"
   id="path317"
   inkscape:connector-curvature="0"
   style="fill:#ffffff" />
	<path
   class="st3"
   d="m 1455.9,292.51994 h 65.1 v 65.3 c 0,22 -11,33 -32.7,33 H 1423 v -65.1 c 0,-22.4 11,-33.2 32.9,-33.2 z"
   id="path319"
   inkscape:connector-curvature="0"
   style="fill:#ffffff" />
	<polygon
   class="st3"
   points="1423,543.3 1521,543.3 1472.1,641.6 "
   id="polygon321"
   transform="translate(0,-121.88006)"
   style="fill:#ffffff" />
	<path
   class="st3"
   d="m 1600.1,421.3 c 27,0 48.9,22 48.9,49 0,27.1 -21.9,49.1 -48.9,49.1 -27,0 -48.9,-22 -48.9,-49.1 0,-27 21.9,-49 48.9,-49 z"
   id="path323"
   inkscape:connector-curvature="0"
   style="fill:#ffffff" />
	<path
   class="st3"
   d="m 1583.9,548.4 h 65.1 v 65.3 c 0,22 -11,33 -32.7,33 H 1551 v -65.1 c 0,-22.4 11,-33.2 32.9,-33.2 z"
   id="path325"
   inkscape:connector-curvature="0"
   style="fill:#ffffff" />
	<polygon
   class="st3"
   points="1551,671.3 1649,671.3 1600.1,769.6 "
   id="polygon327"
   transform="translate(0,6)"
   style="fill:#ffffff" />
	<path
   class="st3"
   d="m 1728.1,677.18006 c 27,0 48.9,22 48.9,49 0,27.1 -21.9,49.1 -48.9,49.1 -27,0 -48.9,-22 -48.9,-49.1 0,-27 21.9,-49 48.9,-49 z"
   id="path329"
   inkscape:connector-curvature="0"
   style="fill:#ffffff" />
	<path
   class="st3"
   d="m 1711.9,804.28006 h 65.1 v 65.3 c 0,22 -11,33 -32.7,33 H 1679 v -65.1 c 0,-22.4 11,-33.2 32.9,-33.2 z"
   id="path331"
   inkscape:connector-curvature="0"
   style="fill:#ffffff" />
	<polygon
   class="st3"
   points="1777,415.3 1728.1,513.6 1679,415.3 "
   id="polygon333"
   transform="translate(0,133.88006)"
   style="fill:#ffffff" />
	<path
   class="st3"
   d="m 1472.1,933.41938 c 27,0 48.9,22 48.9,49 0,27.09972 -21.9,49.09972 -48.9,49.09972 -27,0 -48.9,-22 -48.9,-49.09972 0,-27 21.9,-49 48.9,-49 z"
   id="path335"
   inkscape:connector-curvature="0"
   style="fill:#ffffff" />
	<path
   class="st3"
   d="m 1455.9,676.51994 h 65.1 v 65.3 c 0,21.99944 -11,32.99944 -32.7,32.99944 H 1423 v -65.09944 c 0,-22.4 11,-33.2 32.9,-33.2 z"
   id="path337"
   inkscape:connector-curvature="0"
   style="fill:#ffffff" />
	<polygon
   class="st3"
   points="1423,927.3 1521,927.3 1472.1,1025.6 "
   id="polygon339"
   transform="translate(0,-121.88006)"
   style="fill:#ffffff" />
	<path
   class="st3"
   d="m 1600.1,805.3 c 27,0 48.9,22 48.9,49 0,27.1 -21.9,49.1 -48.9,49.1 -27,0 -48.9,-22 -48.9,-49.1 0,-27 21.9,-49 48.9,-49 z"
   id="path341"
   inkscape:connector-curvature="0"
   style="fill:#ffffff" />
	<path
   class="st3"
   d="m 1583.9,932.4 h 65.1 v 65.3 c 0,22 -11,33 -32.7,33 H 1551 v -65.1 c 0,-22.4 11,-33.2 32.9,-33.2 z"
   id="path343"
   inkscape:connector-curvature="0"
   style="fill:#ffffff" />
	<polygon
   class="st3"
   points="1551,1055.3 1649,1055.3 1600.1,1153.6 "
   id="polygon345"
   transform="translate(0,6)"
   style="fill:#ffffff" />
	<path
   class="st3"
   d="m 1728.1,1061.1809 c 27,0 48.9,22 48.9,49 0,27.1 -21.9,49.1 -48.9,49.1 -27,0 -48.9,-22 -48.9,-49.1 0,-27 21.9,-49 48.9,-49 z"
   id="path347"
   inkscape:connector-curvature="0"
   style="fill:#ffffff" />
	<path
   class="st3"
   d="m 1711.9,1188.2809 h 65.1 v 65.3 c 0,22 -11,33.1 -32.7,33.1 H 1679 v -65.1 c 0,-22.5 11,-33.3 32.9,-33.3 z"
   id="path349"
   inkscape:connector-curvature="0"
   style="fill:#ffffff" />
	<polygon
   class="st3"
   points="1777,799.3 1728.1,897.6 1679,799.3 "
   id="polygon351"
   transform="translate(0,133.88006)"
   style="fill:#ffffff" />
	<path
   class="st3"
   d="m 1472.1,1317.4191 c 27,0 48.9,22 48.9,49 0,27.1 -21.9,49.1 -48.9,49.1 -27,0 -48.9,-22 -48.9,-49.1 0,-27 21.9,-49 48.9,-49 z"
   id="path353"
   inkscape:connector-curvature="0"
   style="fill:#ffffff" />
	<path
   class="st3"
   d="m 1455.9,1060.5191 h 65.1 v 65.3 c 0,22 -11,33.1 -32.7,33.1 H 1423 v -65.1 c 0,-22.5 11,-33.3 32.9,-33.3 z"
   id="path355"
   inkscape:connector-curvature="0"
   style="fill:#ffffff" />
	<polygon
   class="st3"
   points="1423,1311.3 1521,1311.3 1472.1,1409.6 "
   id="polygon357"
   transform="translate(0,-121.88006)"
   style="fill:#ffffff" />
	<path
   class="st3"
   d="m 1600.1,1189.3 c 27,0 48.9,22 48.9,49 0,27.1 -21.9,49.1 -48.9,49.1 -27,0 -48.9,-22 -48.9,-49.1 0,-27 21.9,-49 48.9,-49 z"
   id="path359"
   inkscape:connector-curvature="0"
   style="fill:#ffffff" />
	<path
   class="st3"
   d="m 1583.9,1316.4 h 65.1 v 65.3 c 0,22 -11,33.1 -32.7,33.1 H 1551 v -65.1 c 0,-22.5 11,-33.3 32.9,-33.3 z"
   id="path361"
   inkscape:connector-curvature="0"
   style="fill:#ffffff" />
	<polygon
   class="st3"
   points="1551,1439.3 1649,1439.3 1600.1,1537.6 "
   id="polygon363"
   transform="translate(0,6)"
   style="fill:#ffffff" />
	<path
   class="st3"
   d="m 1728.1,1445.1809 c 27,0 48.9,22 48.9,49 0,27.1 -21.9,49.1 -48.9,49.1 -27,0 -48.9,-22 -48.9,-49.1 0,-27 21.9,-49 48.9,-49 z"
   id="path365"
   inkscape:connector-curvature="0"
   style="fill:#ffffff" />
	<path
   class="st3"
   d="m 1711.9,1572.2809 h 65.1 v 65.3 c 0,22 -11,33.1 -32.7,33.1 H 1679 v -65.1 c 0,-22.5 11,-33.3 32.9,-33.3 z"
   id="path367"
   inkscape:connector-curvature="0"
   style="fill:#ffffff" />
	<polygon
   class="st3"
   points="1777,1183.3 1728.1,1281.6 1679,1183.3 "
   id="polygon369"
   transform="translate(0,133.88006)"
   style="fill:#ffffff" />
	<path
   class="st3"
   d="m 1856.1,165.41994 c 27,0 48.9,22 48.9,49 0,27.1 -21.9,49.1 -48.9,49.1 -27,0 -48.9,-22 -48.9,-49.1 0,-27 21.9,-49 48.9,-49 z"
   id="path371"
   inkscape:connector-curvature="0"
   style="fill:#ffffff" />
	<path
   class="st3"
   d="m 1839.9,-91.48007 h 65.1 v 65.299996 c 0,22 -11,33.1 -32.7,33.1 H 1807 v -65.1 c 0,-22.5 11,-33.299996 32.9,-33.299996 z"
   id="path373"
   inkscape:connector-curvature="0"
   style="fill:#ffffff" />
	<polygon
   class="st3"
   points="1807,159.3 1905,159.3 1856.1,257.6 "
   id="polygon375"
   transform="translate(0,-121.88006)"
   style="fill:#ffffff" />
	<path
   class="st3"
   d="m 1984.1,37.3 c 27,0 48.9,22 48.9,49.1 0,27.1 -21.9,49.1 -48.9,49.1 -27,0 -48.9,-22 -48.9,-49.1 0,-27.1 21.9,-49.1 48.9,-49.1 z"
   id="path377"
   inkscape:connector-curvature="0"
   style="fill:#ffffff" />
	<path
   class="st3"
   d="m 1967.9,164.4 h 65.1 v 65.3 c 0,22 -11,33 -32.7,33 H 1935 v -65.1 c 0,-22.4 11,-33.2 32.9,-33.2 z"
   id="path379"
   inkscape:connector-curvature="0"
   style="fill:#ffffff" />
	<polygon
   class="st3"
   points="1935,287.3 2033,287.3 1984.1,385.6 "
   id="polygon381"
   transform="translate(0,6)"
   style="fill:#ffffff" />
	<path
   class="st3"
   d="m 2112.1,293.18006 c 27,0 48.9,22 48.9,49.1 0,27.1 -21.9,49.1 -48.9,49.1 -27,0 -48.9,-22 -48.9,-49.1 0,-27.1 21.9,-49.1 48.9,-49.1 z"
   id="path383"
   inkscape:connector-curvature="0"
   style="fill:#ffffff" />
	<path
   class="st3"
   d="m 2095.9,420.28006 h 65.1 v 65.3 c 0,22 -11,33 -32.7,33 H 2063 v -65.1 c 0,-22.4 11,-33.2 32.9,-33.2 z"
   id="path385"
   inkscape:connector-curvature="0"
   style="fill:#ffffff" />
	<polygon
   class="st3"
   points="2161,31.3 2112.1,129.6 2063,31.3 "
   id="polygon387"
   transform="translate(0,133.88006)"
   style="fill:#ffffff" />
	<path
   class="st3"
   d="m 2240.1,164.3218 c 27,0 48.9,22 48.9,49 0,27.1 -21.9,49.1 -48.9,49.1 -27,0 -48.9,-22 -48.9,-49.1 0,-27 21.9,-49 48.9,-49 z"
   id="path389"
   inkscape:connector-curvature="0"
   style="fill:#ffffff" />
	<path
   class="st3"
   d="m 2223.9,-92.578156 h 65.1 v 65.3 c 0,21.999996 -11,33.0999956 -32.7,33.0999956 H 2191 V -59.278156 c 0,-22.5 11,-33.3 32.9,-33.3 z"
   id="path391"
   inkscape:connector-curvature="0"
   style="fill:#ffffff" />
	<polygon
   class="st3"
   points="2240.1,257.6 2191,159.3 2289,159.3 "
   id="polygon393"
   style="fill:#ffffff"
   transform="translate(0,-122.9782)" />
	<path
   class="st3"
   d="m 2368.1,37.3 c 27,0 48.9,22 48.9,49.1 0,27.1 -21.9,49.1 -48.9,49.1 -27,0 -48.9,-22 -48.9,-49.1 0,-27.1 21.9,-49.1 48.9,-49.1 z"
   id="path395"
   inkscape:connector-curvature="0"
   style="fill:#ffffff" />
	<path
   class="st3"
   d="m 2351.9,164.4 h 65.1 v 65.3 c 0,22 -11,33 -32.7,33 H 2319 v -65.1 c 0,-22.4 11,-33.2 32.9,-33.2 z"
   id="path397"
   inkscape:connector-curvature="0"
   style="fill:#ffffff" />
	<polygon
   class="st3"
   points="2319,287.3 2417,287.3 2368.1,385.6 "
   id="polygon399"
   transform="translate(0,6)"
   style="fill:#ffffff" />
	<path
   class="st3"
   d="m 2496.1,293.3 c 27,0 48.9,22 48.9,49.1 0,27.1 -21.9,49.1 -48.9,49.1 -27,0 -48.9,-22 -48.9,-49.1 0,-27.1 21.9,-49.1 48.9,-49.1 z"
   id="path401"
   inkscape:connector-curvature="0"
   style="fill:#ffffff" />
	<path
   class="st3"
   d="m 2479.9,420.4 h 65.1 v 65.3 c 0,22 -11,33 -32.7,33 H 2447 v -65.1 c 0,-22.4 11,-33.2 32.9,-33.2 z"
   id="path403"
   inkscape:connector-curvature="0"
   style="fill:#ffffff" />
	<polygon
   class="st3"
   points="2545,31.3 2496.1,129.6 2447,31.3 "
   id="polygon405"
   transform="translate(0,134)"
   style="fill:#ffffff" />
	<path
   class="st3"
   d="m 1856.1,549.41994 c 27,0 48.9,22 48.9,49 0,27.1 -21.9,49.1 -48.9,49.1 -27,0 -48.9,-22 -48.9,-49.1 0,-27 21.9,-49 48.9,-49 z"
   id="path407"
   inkscape:connector-curvature="0"
   style="fill:#ffffff" />
	<path
   class="st3"
   d="m 1839.9,292.51994 h 65.1 v 65.3 c 0,22 -11,33 -32.7,33 H 1807 v -65.1 c 0,-22.4 11,-33.2 32.9,-33.2 z"
   id="path409"
   inkscape:connector-curvature="0"
   style="fill:#ffffff" />
	<polygon
   class="st3"
   points="1807,543.3 1905,543.3 1856.1,641.6 "
   id="polygon411"
   transform="translate(0,-121.88006)"
   style="fill:#ffffff" />
	<path
   class="st3"
   d="m 1984.1,421.3 c 27,0 48.9,22 48.9,49 0,27.1 -21.9,49.1 -48.9,49.1 -27,0 -48.9,-22 -48.9,-49.1 0,-27 21.9,-49 48.9,-49 z"
   id="path413"
   inkscape:connector-curvature="0"
   style="fill:#ffffff" />
	<path
   class="st3"
   d="m 1967.9,548.4 h 65.1 v 65.3 c 0,22 -11,33 -32.7,33 H 1935 v -65.1 c 0,-22.4 11,-33.2 32.9,-33.2 z"
   id="path415"
   inkscape:connector-curvature="0"
   style="fill:#ffffff" />
	<polygon
   class="st3"
   points="1935,671.3 2033,671.3 1984.1,769.6 "
   id="polygon417"
   transform="translate(0,6)"
   style="fill:#ffffff" />
	<path
   class="st3"
   d="m 2112.1,677.18006 c 27,0 48.9,22 48.9,49 0,27.1 -21.9,49.1 -48.9,49.1 -27,0 -48.9,-22 -48.9,-49.1 0,-27 21.9,-49 48.9,-49 z"
   id="path419"
   inkscape:connector-curvature="0"
   style="fill:#ffffff" />
	<path
   class="st3"
   d="m 2095.9,804.28006 h 65.1 v 65.3 c 0,22 -11,33 -32.7,33 H 2063 v -65.1 c 0,-22.4 11,-33.2 32.9,-33.2 z"
   id="path421"
   inkscape:connector-curvature="0"
   style="fill:#ffffff" />
	<polygon
   class="st3"
   points="2161,415.3 2112.1,513.6 2063,415.3 "
   id="polygon423"
   transform="translate(0,133.88006)"
   style="fill:#ffffff" />
	<path
   class="st3"
   d="m 2240.1,548.3218 c 27,0 48.9,22 48.9,49 0,27.1 -21.9,49.1 -48.9,49.1 -27,0 -48.9,-22 -48.9,-49.1 0,-27 21.9,-49 48.9,-49 z"
   id="path425"
   inkscape:connector-curvature="0"
   style="fill:#ffffff" />
	<path
   class="st3"
   d="m 2223.9,291.4218 h 65.1 v 65.3 c 0,22 -11,33 -32.7,33 H 2191 v -65.1 c 0,-22.4 11,-33.2 32.9,-33.2 z"
   id="path427"
   inkscape:connector-curvature="0"
   style="fill:#ffffff" />
	<polygon
   class="st3"
   points="2240.1,641.6 2191,543.3 2289,543.3 "
   id="polygon429"
   style="fill:#ffffff"
   transform="translate(0,-122.9782)" />
	<path
   class="st3"
   d="m 2368.1,421.3 c 27,0 48.9,22 48.9,49 0,27.1 -21.9,49.1 -48.9,49.1 -27,0 -48.9,-22 -48.9,-49.1 0,-27 21.9,-49 48.9,-49 z"
   id="path431"
   inkscape:connector-curvature="0"
   style="fill:#ffffff" />
	<path
   class="st3"
   d="m 2351.9,548.4 h 65.1 v 65.3 c 0,22 -11,33 -32.7,33 H 2319 v -65.1 c 0,-22.4 11,-33.2 32.9,-33.2 z"
   id="path433"
   inkscape:connector-curvature="0"
   style="fill:#ffffff" />
	<polygon
   class="st3"
   points="2319,671.3 2417,671.3 2368.1,769.6 "
   id="polygon435"
   transform="translate(0,6)"
   style="fill:#ffffff" />
	<path
   class="st3"
   d="m 2496.1,677.3 c 27,0 48.9,22 48.9,49 0,27.1 -21.9,49.1 -48.9,49.1 -27,0 -48.9,-22 -48.9,-49.1 0,-27 21.9,-49 48.9,-49 z"
   id="path437"
   inkscape:connector-curvature="0"
   style="fill:#ffffff" />
	<path
   class="st3"
   d="m 2479.9,804.4 h 65.1 v 65.3 c 0,22 -11,33 -32.7,33 H 2447 v -65.1 c 0,-22.4 11,-33.2 32.9,-33.2 z"
   id="path439"
   inkscape:connector-curvature="0"
   style="fill:#ffffff" />
	<polygon
   class="st3"
   points="2545,415.3 2496.1,513.6 2447,415.3 "
   id="polygon441"
   transform="translate(0,134)"
   style="fill:#ffffff" />
	<path
   class="st3"
   d="m 1856.1,933.41938 c 27,0 48.9,22 48.9,49 0,27.09972 -21.9,49.09972 -48.9,49.09972 -27,0 -48.9,-22 -48.9,-49.09972 0,-27 21.9,-49 48.9,-49 z"
   id="path443"
   inkscape:connector-curvature="0"
   style="fill:#ffffff" />
	<path
   class="st3"
   d="m 1839.9,676.51994 h 65.1 v 65.3 c 0,21.99944 -11,32.99944 -32.7,32.99944 H 1807 v -65.09944 c 0,-22.4 11,-33.2 32.9,-33.2 z"
   id="path445"
   inkscape:connector-curvature="0"
   style="fill:#ffffff" />
	<polygon
   class="st3"
   points="1807,927.3 1905,927.3 1856.1,1025.6 "
   id="polygon447"
   transform="translate(0,-121.88006)"
   style="fill:#ffffff" />
	<path
   class="st3"
   d="m 1984.1,805.3 c 27,0 48.9,22 48.9,49 0,27.1 -21.9,49.1 -48.9,49.1 -27,0 -48.9,-22 -48.9,-49.1 0,-27 21.9,-49 48.9,-49 z"
   id="path449"
   inkscape:connector-curvature="0"
   style="fill:#ffffff" />
	<path
   class="st3"
   d="m 1967.9,932.4 h 65.1 v 65.3 c 0,22 -11,33 -32.7,33 H 1935 v -65.1 c 0,-22.4 11,-33.2 32.9,-33.2 z"
   id="path451"
   inkscape:connector-curvature="0"
   style="fill:#ffffff" />
	<polygon
   class="st3"
   points="1935,1055.3 2033,1055.3 1984.1,1153.6 "
   id="polygon453"
   transform="translate(0,6)"
   style="fill:#ffffff" />
	<path
   class="st3"
   d="m 2112.1,1061.1809 c 27,0 48.9,22 48.9,49 0,27.1 -21.9,49.1 -48.9,49.1 -27,0 -48.9,-22 -48.9,-49.1 0,-27 21.9,-49 48.9,-49 z"
   id="path455"
   inkscape:connector-curvature="0"
   style="fill:#ffffff" />
	<path
   class="st3"
   d="m 2095.9,1188.2809 h 65.1 v 65.3 c 0,22 -11,33.1 -32.7,33.1 H 2063 v -65.1 c 0,-22.5 11,-33.3 32.9,-33.3 z"
   id="path457"
   inkscape:connector-curvature="0"
   style="fill:#ffffff" />
	<polygon
   class="st3"
   points="2161,799.3 2112.1,897.6 2063,799.3 "
   id="polygon459"
   transform="translate(0,133.88006)"
   style="fill:#ffffff" />
	<path
   class="st3"
   d="m 2240.1,932.3218 c 27,0 48.9,22 48.9,49 0,27.1 -21.9,49.1 -48.9,49.1 -27,0 -48.9,-22 -48.9,-49.1 0,-27 21.9,-49 48.9,-49 z"
   id="path461"
   inkscape:connector-curvature="0"
   style="fill:#ffffff" />
	<path
   class="st3"
   d="m 2223.9,675.4218 h 65.1 v 65.3 c 0,22 -11,33 -32.7,33 H 2191 v -65.1 c 0,-22.4 11,-33.2 32.9,-33.2 z"
   id="path463"
   inkscape:connector-curvature="0"
   style="fill:#ffffff" />
	<polygon
   class="st3"
   points="2240.1,1025.6 2191,927.3 2289,927.3 "
   id="polygon465"
   style="fill:#ffffff"
   transform="translate(0,-122.9782)" />
	<path
   class="st3"
   d="m 2368.1,805.3 c 27,0 48.9,22 48.9,49 0,27.1 -21.9,49.1 -48.9,49.1 -27,0 -48.9,-22 -48.9,-49.1 0,-27 21.9,-49 48.9,-49 z"
   id="path467"
   inkscape:connector-curvature="0"
   style="fill:#ffffff" />
	<path
   class="st3"
   d="m 2496.1,1061.3 c 27,0 48.9,22 48.9,49 0,27.1 -21.9,49.1 -48.9,49.1 -27,0 -48.9,-22 -48.9,-49.1 0,-27 21.9,-49 48.9,-49 z"
   id="path469"
   inkscape:connector-curvature="0"
   style="fill:#ffffff" />
	<path
   class="st3"
   d="m 2479.9,1188.4 h 65.1 v 65.3 c 0,22 -11,33.1 -32.7,33.1 H 2447 v -65.1 c 0,-22.5 11,-33.3 32.9,-33.3 z"
   id="path471"
   inkscape:connector-curvature="0"
   style="fill:#ffffff" />
	<polygon
   class="st3"
   points="2545,799.3 2496.1,897.6 2447,799.3 "
   id="polygon473"
   transform="translate(0,134)"
   style="fill:#ffffff" />
	<path
   class="st3"
   d="m 1856.1,1317.4191 c 27,0 48.9,22 48.9,49 0,27.1 -21.9,49.1 -48.9,49.1 -27,0 -48.9,-22 -48.9,-49.1 0,-27 21.9,-49 48.9,-49 z"
   id="path475"
   inkscape:connector-curvature="0"
   style="fill:#ffffff" />
	<path
   class="st3"
   d="m 1839.9,1060.5191 h 65.1 v 65.3 c 0,22 -11,33.1 -32.7,33.1 H 1807 v -65.1 c 0,-22.5 11,-33.3 32.9,-33.3 z"
   id="path477"
   inkscape:connector-curvature="0"
   style="fill:#ffffff" />
	<polygon
   class="st3"
   points="1807,1311.3 1905,1311.3 1856.1,1409.6 "
   id="polygon479"
   transform="translate(0,-121.88006)"
   style="fill:#ffffff" />
	<path
   class="st3"
   d="m 1984.1,1189.3 c 27,0 48.9,22 48.9,49 0,27.1 -21.9,49.1 -48.9,49.1 -27,0 -48.9,-22 -48.9,-49.1 0,-27 21.9,-49 48.9,-49 z"
   id="path481"
   inkscape:connector-curvature="0"
   style="fill:#ffffff" />
	<path
   class="st3"
   d="m 1967.9,1316.4 h 65.1 v 65.3 c 0,22 -11,33.1 -32.7,33.1 H 1935 v -65.1 c 0,-22.5 11,-33.3 32.9,-33.3 z"
   id="path483"
   inkscape:connector-curvature="0"
   style="fill:#ffffff" />
	<polygon
   class="st3"
   points="1935,1439.3 2033,1439.3 1984.1,1537.6 "
   id="polygon485"
   transform="translate(0,6)"
   style="fill:#ffffff" />
	<path
   class="st3"
   d="m 2112.1,1445.1809 c 27,0 48.9,22 48.9,49 0,27.1 -21.9,49.1 -48.9,49.1 -27,0 -48.9,-22 -48.9,-49.1 0,-27 21.9,-49 48.9,-49 z"
   id="path487"
   inkscape:connector-curvature="0"
   style="fill:#ffffff" />
	<path
   class="st3"
   d="m 2095.9,1572.2809 h 65.1 v 65.3 c 0,22 -11,33.1 -32.7,33.1 H 2063 v -65.1 c 0,-22.5 11,-33.3 32.9,-33.3 z"
   id="path489"
   inkscape:connector-curvature="0"
   style="fill:#ffffff" />
	<polygon
   class="st3"
   points="2161,1183.3 2112.1,1281.6 2063,1183.3 "
   id="polygon491"
   transform="translate(0,133.88006)"
   style="fill:#ffffff" />
	<path
   class="st3"
   d="m 2240.1,1316.3218 c 27,0 48.9,22 48.9,49 0,27.1 -21.9,49.1 -48.9,49.1 -27,0 -48.9,-22 -48.9,-49.1 0,-27 21.9,-49 48.9,-49 z"
   id="path493"
   inkscape:connector-curvature="0"
   style="fill:#ffffff" />
	<path
   class="st3"
   d="m 2223.9,1059.4218 h 65.1 v 65.3 c 0,22 -11,33.1 -32.7,33.1 H 2191 v -65.1 c 0,-22.5 11,-33.3 32.9,-33.3 z"
   id="path495"
   inkscape:connector-curvature="0"
   style="fill:#ffffff" />
	<polygon
   class="st3"
   points="2240.1,1409.6 2191,1311.3 2289,1311.3 "
   id="polygon497"
   style="fill:#ffffff"
   transform="translate(0,-122.9782)" />
	<path
   class="st3"
   d="m 2351.9,1316.4 h 65.1 v 65.3 c 0,22 -11,33.1 -32.7,33.1 H 2319 v -65.1 c 0,-22.5 11,-33.3 32.9,-33.3 z"
   id="path499"
   inkscape:connector-curvature="0"
   style="fill:#ffffff" />
	<polygon
   class="st3"
   points="2319,1439.3 2417,1439.3 2368.1,1537.6 "
   id="polygon501"
   transform="translate(0,6)"
   style="fill:#ffffff" />
	<path
   class="st3"
   d="m 2496.1,1445.3 c 27,0 48.9,22 48.9,49 0,27.1 -21.9,49.1 -48.9,49.1 -27,0 -48.9,-22 -48.9,-49.1 0,-27 21.9,-49 48.9,-49 z"
   id="path503"
   inkscape:connector-curvature="0"
   style="fill:#ffffff" />
	<path
   class="st3"
   d="m 2479.9,1572.4 h 65.1 v 65.3 c 0,22 -11,33.1 -32.7,33.1 H 2447 v -65.1 c 0,-22.5 11,-33.3 32.9,-33.3 z"
   id="path505"
   inkscape:connector-curvature="0"
   style="fill:#ffffff" />
	<polygon
   class="st3"
   points="2545,1183.3 2496.1,1281.6 2447,1183.3 "
   id="polygon507"
   transform="translate(0,134)"
   style="fill:#ffffff" />
	<path
   class="st3"
   d="m -63.9,-90.7 c 27,0 48.9,22 48.9,49.1 0,27.1 -21.9,49.1 -48.9,49.1 -27,0 -48.9,-22 -48.9,-49.1 0,-27.1 21.9,-49.1 48.9,-49.1 z"
   id="path509"
   inkscape:connector-curvature="0"
   style="fill:#ffffff" />
	<polygon
   class="st3"
   points="15,-96.7 113,-96.7 64.1,1.6 "
   id="polygon511"
   transform="translate(0,6)"
   style="fill:#ffffff" />
	<path
   class="st3"
   d="M 175.9,36.280102 H 241 v 65.299978 c 0,21.99998 -11,33.09998 -32.7,33.09998 H 143 V 69.580102 c 0,-22.5 11,-33.3 32.9,-33.3 z"
   id="path513"
   inkscape:connector-curvature="0"
   style="fill:#ffffff" />
	<path
   class="st3"
   d="m 320.1,-218.58009 c 27,0 48.9,22 48.9,49.1 0,27.10003 -21.9,49.10003 -48.9,49.10003 -27,0 -48.9,-22 -48.9,-49.10003 0,-27.1 21.9,-49.1 48.9,-49.1 z"
   id="path515"
   inkscape:connector-curvature="0"
   style="fill:#ffffff" />
	<polygon
   class="st3"
   points="399,-96.7 497,-96.7 448.1,1.6 "
   id="polygon517"
   transform="translate(0,6)"
   style="fill:#ffffff" />
	<path
   class="st3"
   d="M 559.9,36.280102 H 625 v 65.299978 c 0,21.99998 -11,33.09998 -32.7,33.09998 H 527 V 69.580102 c 0,-22.5 11,-33.3 32.9,-33.3 z"
   id="path519"
   inkscape:connector-curvature="0"
   style="fill:#ffffff" />
	<path
   class="st3"
   d="m 704.1,-218.58009 c 27,0 48.9,22 48.9,49.1 0,27.10003 -21.9,49.10003 -48.9,49.10003 -27,0 -48.9,-22 -48.9,-49.10003 0,-27.1 21.9,-49.1 48.9,-49.1 z"
   id="path521"
   inkscape:connector-curvature="0"
   style="fill:#ffffff" />
	<polygon
   class="st3"
   points="783,-96.7 881,-96.7 832.1,1.6 "
   id="polygon523"
   transform="translate(0,6)"
   style="fill:#ffffff" />
	<path
   class="st3"
   d="m 943.9,36.280102 h 65.1 v 65.299978 c 0,21.99998 -11,33.09998 -32.7,33.09998 H 911 V 69.580102 c 0,-22.5 11,-33.3 32.9,-33.3 z"
   id="path525"
   inkscape:connector-curvature="0"
   style="fill:#ffffff" />
	<path
   class="st3"
   d="m 1088.1,-218.58009 c 27,0 48.9,22 48.9,49.1 0,27.10003 -21.9,49.10003 -48.9,49.10003 -27,0 -48.9,-22 -48.9,-49.10003 0,-27.1 21.9,-49.1 48.9,-49.1 z"
   id="path527"
   inkscape:connector-curvature="0"
   style="fill:#ffffff" />
	<polygon
   class="st3"
   points="1167,-96.7 1265,-96.7 1216.1,1.6 "
   id="polygon529"
   transform="translate(0,6)"
   style="fill:#ffffff" />
	<path
   class="st3"
   d="m 1327.9,36.280102 h 65.1 v 65.299978 c 0,21.99998 -11,33.09998 -32.7,33.09998 H 1295 V 69.580102 c 0,-22.5 11,-33.3 32.9,-33.3 z"
   id="path531"
   inkscape:connector-curvature="0"
   style="fill:#ffffff" />
	<path
   class="st3"
   d="m 1472.1,-218.58009 c 27,0 48.9,22 48.9,49.1 0,27.10003 -21.9,49.10003 -48.9,49.10003 -27,0 -48.9,-22 -48.9,-49.10003 0,-27.1 21.9,-49.1 48.9,-49.1 z"
   id="path533"
   inkscape:connector-curvature="0"
   style="fill:#ffffff" />
	<polygon
   class="st3"
   points="1551,-96.7 1649,-96.7 1600.1,1.6 "
   id="polygon535"
   transform="translate(0,6)"
   style="fill:#ffffff" />
	<path
   class="st3"
   d="m 1711.9,36.280102 h 65.1 v 65.299978 c 0,21.99998 -11,33.09998 -32.7,33.09998 H 1679 V 69.580102 c 0,-22.5 11,-33.3 32.9,-33.3 z"
   id="path537"
   inkscape:connector-curvature="0"
   style="fill:#ffffff" />
	<path
   class="st3"
   d="m 1856.1,-218.58009 c 27,0 48.9,22 48.9,49.1 0,27.10003 -21.9,49.10003 -48.9,49.10003 -27,0 -48.9,-22 -48.9,-49.10003 0,-27.1 21.9,-49.1 48.9,-49.1 z"
   id="path539"
   inkscape:connector-curvature="0"
   style="fill:#ffffff" />
	<polygon
   class="st3"
   points="1935,-96.7 2033,-96.7 1984.1,1.6 "
   id="polygon541"
   transform="translate(0,6)"
   style="fill:#ffffff" />
	<path
   class="st3"
   d="m 2095.9,36.280102 h 65.1 v 65.299978 c 0,21.99998 -11,33.09998 -32.7,33.09998 H 2063 V 69.580102 c 0,-22.5 11,-33.3 32.9,-33.3 z"
   id="path543"
   inkscape:connector-curvature="0"
   style="fill:#ffffff" />
	<path
   class="st3"
   d="m 2240.1,-219.6782 c 27,0 48.9,22 48.9,49.1 0,27.1 -21.9,49.1 -48.9,49.1 -27,0 -48.9,-22 -48.9,-49.1 0,-27.1 21.9,-49.1 48.9,-49.1 z"
   id="path545"
   inkscape:connector-curvature="0"
   style="fill:#ffffff" />
	<polygon
   class="st3"
   points="2319,-96.7 2417,-96.7 2368.1,1.6 "
   id="polygon547"
   transform="translate(0,6)"
   style="fill:#ffffff" />
	<path
   class="st3"
   d="m 2479.9,36.39996 h 65.1 v 65.3 C 2545,123.7 2534,134.8 2512.3,134.8 H 2447 V 69.69996 c 0,-22.5 11,-33.3 32.9,-33.3 z"
   id="path549"
   inkscape:connector-curvature="0"
   style="fill:#ffffff" />
	<path
   class="st3"
   d="m 2624.1,293.3 c 27,0 48.9,22 48.9,49 0,27.1 -21.9,49.1 -48.9,49.1 -27,0 -48.9,-22 -48.9,-49.1 0,-27 21.9,-49 48.9,-49 z"
   id="path551"
   inkscape:connector-curvature="0"
   style="fill:#ffffff" />
	<path
   class="st3"
   d="m 2607.9,36.4 h 65.1 v 65.3 c 0,22 -11,33.1 -32.7,33.1 H 2575 V 69.7 c 0,-22.5 11,-33.3 32.9,-33.3 z"
   id="path553"
   inkscape:connector-curvature="0"
   style="fill:#ffffff" />
	<polygon
   class="st3"
   points="2575,159.3 2673,159.3 2624.1,257.6 "
   id="polygon555"
   transform="translate(0,6)"
   style="fill:#ffffff" />
	<path
   class="st3"
   d="m 2624.1,677.3 c 27,0 48.9,22 48.9,49 0,27.1 -21.9,49.1 -48.9,49.1 -27,0 -48.9,-22 -48.9,-49.1 0,-27 21.9,-49 48.9,-49 z"
   id="path557"
   inkscape:connector-curvature="0"
   style="fill:#ffffff" />
	<path
   class="st3"
   d="m 2607.9,420.4 h 65.1 v 65.3 c 0,22 -11,33 -32.7,33 H 2575 v -65.1 c 0,-22.4 11,-33.2 32.9,-33.2 z"
   id="path559"
   inkscape:connector-curvature="0"
   style="fill:#ffffff" />
	<polygon
   class="st3"
   points="2575,543.3 2673,543.3 2624.1,641.6 "
   id="polygon561"
   transform="translate(0,6)"
   style="fill:#ffffff" />
	<path
   class="st3"
   d="m 2624.1,1061.3 c 27,0 48.9,22 48.9,49 0,27.1 -21.9,49.1 -48.9,49.1 -27,0 -48.9,-22 -48.9,-49.1 0,-27 21.9,-49 48.9,-49 z"
   id="path563"
   inkscape:connector-curvature="0"
   style="fill:#ffffff" />
	<path
   class="st3"
   d="m 2607.9,804.4 h 65.1 v 65.3 c 0,22 -11,33 -32.7,33 H 2575 v -65.1 c 0,-22.4 11,-33.2 32.9,-33.2 z"
   id="path565"
   inkscape:connector-curvature="0"
   style="fill:#ffffff" />
	<polygon
   class="st3"
   points="2575,927.3 2673,927.3 2624.1,1025.6 "
   id="polygon567"
   transform="translate(0,6)"
   style="fill:#ffffff" />
	<path
   class="st3"
   d="m 2624.1,1445.3 c 27,0 48.9,22 48.9,49 0,27.1 -21.9,49.1 -48.9,49.1 -27,0 -48.9,-22 -48.9,-49.1 0,-27 21.9,-49 48.9,-49 z"
   id="path569"
   inkscape:connector-curvature="0"
   style="fill:#ffffff" />
	<path
   class="st3"
   d="m 2607.9,1188.4 h 65.1 v 65.3 c 0,22 -11,33.1 -32.7,33.1 H 2575 v -65.1 c 0,-22.5 11,-33.3 32.9,-33.3 z"
   id="path571"
   inkscape:connector-curvature="0"
   style="fill:#ffffff" />
	<polygon
   class="st3"
   points="2575,1311.3 2673,1311.3 2624.1,1409.6 "
   id="polygon573"
   transform="translate(0,6)"
   style="fill:#ffffff" />
	<path
   class="st3"
   d="m 2624.1,-90.7 c 27,0 48.9,22 48.9,49.1 0,27.1 -21.9,49.1 -48.9,49.1 -27,0 -48.9,-22 -48.9,-49.1 0,-27.1 21.9,-49.1 48.9,-49.1 z"
   id="path575"
   inkscape:connector-curvature="0"
   style="fill:#ffffff" />
</g>
</svg>