<?xml version="1.0" encoding="UTF-8" standalone="no"?>
<svg
   xmlns:dc="http://purl.org/dc/elements/1.1/"
   xmlns:cc="http://creativecommons.org/ns#"
   xmlns:rdf="http://www.w3.org/1999/02/22-rdf-syntax-ns#"
   xmlns:svg="http://www.w3.org/2000/svg"
   xmlns="http://www.w3.org/2000/svg"
   xml:space="preserve"
   enable-background="new 0 0 841.89 595.28"
   viewBox="0 0 500.57885 170.9201"
   height="170.9201"
   width="500.57886"
   y="0px"
   x="0px"
   id="Layer_1"
   version="1.1"><metadata
   id="metadata1001"><rdf:RDF><cc:Work
       rdf:about=""><dc:format>image/svg+xml</dc:format><dc:type
         rdf:resource="http://purl.org/dc/dcmitype/StillImage" /><dc:title></dc:title></cc:Work></rdf:RDF></metadata><defs
   id="defs999" />
<path
   style="clip-rule:evenodd;fill:#a7c136;fill-rule:evenodd"
   id="path928"
   d="m 82.670872,165.30999 c -44.152,-1.541 -78.7009998,-38.59 -77.1589998,-82.743997 1.539,-44.16 38.5909998,-78.702 82.7439998,-77.158 30.525998,1.066 56.453998,19.101 69.045998,44.722 1.938,0.06 3.879,0.065 5.834,-0.296 -13.065,-28.426 -41.295,-48.614 -74.692998,-49.78100001 C 41.273872,-1.593007 1.7028722,35.307993 0.05287218,82.481993 -1.5911278,129.64599 35.305872,169.21899 82.478872,170.86799 c 12.796,0.444 25.025998,-1.965 36.099998,-6.629 -0.533,-1.657 -0.865,-3.554 -1.416,-5.418 -10.55,4.559 -22.243998,6.917 -34.491998,6.489 z" />
<g
   transform="translate(-137.66013,-212.57401)"
   id="g932">
	<path
   style="fill:none"
   id="path930"
   d="M 585.664,300.218" />
</g>
<g
   transform="translate(-137.66013,-212.57401)"
   id="g958">
	<path
   style="fill:#389898"
   id="path934"
   d="m 315.179,294.458 h 13.096 v 21.973 c -3.711,1.582 -7.657,2.373 -11.836,2.373 -4.98,0 -8.814,-1.895 -11.499,-5.684 -2.686,-3.789 -4.028,-9.248 -4.028,-16.377 0,-6.875 1.538,-12.256 4.614,-16.143 3.076,-3.886 7.378,-5.83 12.905,-5.83 3.417,0 6.68,0.879 9.785,2.637 l -2.52,6.504 c -2.422,-1.406 -4.688,-2.109 -6.797,-2.109 -3.028,0 -5.425,1.353 -7.192,4.058 -1.768,2.706 -2.651,6.392 -2.651,11.06 0,4.805 0.64,8.487 1.919,11.045 1.279,2.559 3.139,3.838 5.581,3.838 1.289,0 2.597,-0.166 3.926,-0.498 v -9.814 h -5.303 z" />
	<path
   style="fill:#389898"
   id="path936"
   d="m 354.114,318.219 h -19.307 v -42.833 h 19.307 v 6.885 h -11.338 v 10.195 h 10.518 v 6.915 h -10.518 v 11.865 h 11.338 z" />
	<path
   style="fill:#389898"
   id="path938"
   d="m 389.827,296.744 c 0,7.09 -1.329,12.54 -3.984,16.348 -2.656,3.809 -6.456,5.713 -11.396,5.713 -4.961,0 -8.77,-1.9 -11.426,-5.699 -2.656,-3.798 -3.984,-9.271 -3.984,-16.42 0,-7.09 1.328,-12.524 3.984,-16.304 2.656,-3.779 6.484,-5.669 11.484,-5.669 4.941,0 8.73,1.9 11.367,5.698 2.637,3.798 3.955,9.243 3.955,16.333 z m -22.646,0 c 0,4.883 0.615,8.604 1.846,11.163 1.231,2.559 3.037,3.838 5.42,3.838 4.805,0 7.207,-5 7.207,-15 0,-10 -2.383,-15 -7.148,-15 -2.422,0 -4.248,1.274 -5.479,3.823 -1.231,2.549 -1.846,6.273 -1.846,11.176 z" />
	<path
   style="fill:#a7c136"
   id="path940"
   d="m 404.816,307.202 c 0,0.48 0.288,1.08 0.864,1.8 0.576,0.721 1.224,1.08 1.944,1.08 0.767,0 2.124,-0.659 4.068,-1.98 1.944,-1.318 3.251,-1.979 3.924,-1.979 0.335,0 0.504,0.097 0.504,0.288 0,0.864 -2.041,3.408 -6.12,7.633 -2.16,2.256 -4.32,3.383 -6.48,3.383 -1.632,0 -3.096,-0.6 -4.392,-1.799 -1.296,-1.199 -2.136,-2.617 -2.52,-4.248 -0.336,-1.393 -0.457,-3.024 -0.36,-4.896 -4.655,4.273 -7.56,6.385 -8.712,6.336 h -0.288 c -0.096,-0.047 -0.144,-0.168 -0.144,-0.359 0,0.143 0.121,-0.119 0.36,-0.793 0.72,-0.623 1.681,-1.656 2.88,-3.096 1.344,-1.631 2.279,-2.688 2.808,-3.168 1.728,-2.256 3.48,-4.512 5.256,-6.768 2.495,-3.071 4.631,-4.608 6.408,-4.608 1.536,0 2.304,1.44 2.304,4.32 0,1.152 -0.385,2.664 -1.152,4.537 -0.768,1.869 -1.152,3.309 -1.152,4.317 z m 12.816,-36.288 c 0,1.152 -0.637,2.137 -1.908,2.952 -1.272,0.817 -2.532,1.224 -3.78,1.224 -1.344,0 -2.761,-0.456 -4.248,-1.368 -1.728,-1.008 -2.592,-2.16 -2.592,-3.456 0,-1.152 0.672,-2.111 2.016,-2.88 1.104,-0.671 2.279,-1.008 3.528,-1.008 1.296,0 2.736,0.432 4.32,1.296 1.775,0.961 2.664,2.041 2.664,3.24 z" />
	<path
   style="fill:#a7c136"
   id="path942"
   d="m 426.703,304.25 c 0,0.529 0.12,1.512 0.361,2.952 1.343,-1.823 2.664,-3.647 3.959,-5.472 2.017,-2.4 3.72,-3.6 5.112,-3.6 2.64,0 3.96,1.848 3.96,5.543 0,0.625 0.023,1.561 0.072,2.809 0.047,1.248 0.072,2.16 0.072,2.736 0,1.775 0.72,2.664 2.16,2.664 1.535,0 3.023,-0.623 4.463,-1.873 2.977,-2.592 6.697,-5.903 11.16,-9.936 l 0.504,0.359 c -0.24,0.674 -0.719,1.537 -1.439,2.593 -0.576,0.816 -1.129,1.632 -1.656,2.448 -3.408,5.471 -5.328,8.496 -5.76,9.072 -2.881,3.695 -5.785,5.543 -8.712,5.543 -3.409,0 -5.688,-1.32 -6.841,-3.959 -0.719,-1.584 -1.151,-4.656 -1.295,-9.217 -0.674,-0.047 -1.584,0.984 -2.736,3.096 -1.776,3.217 -2.904,5.16 -3.385,5.832 -1.584,2.113 -3.191,3.168 -4.823,3.168 -1.152,0 -2.088,-0.648 -2.808,-1.943 -0.576,-1.055 -0.864,-2.207 -0.864,-3.457 0,-0.67 0.167,-1.584 0.504,-2.734 0.335,-1.152 0.504,-2.041 0.504,-2.664 0,0.287 0.047,-0.072 0.144,-1.08 0.047,-0.576 -0.025,-0.865 -0.216,-0.865 -1.008,0 -2.268,0.757 -3.78,2.269 -1.512,1.513 -2.772,2.292 -3.78,2.341 l -0.504,-0.217 0.36,-1.008 c 2.304,-2.783 4.631,-5.568 6.984,-8.352 3.6,-4.321 5.855,-6.48 6.768,-6.48 1.152,0 1.729,1.656 1.729,4.968 0,0.72 -0.036,1.608 -0.107,2.664 -0.073,1.057 -0.11,1.656 -0.11,1.8 z" />
	<path
   style="fill:#a7c136"
   id="path944"
   d="m 473.359,298.85 c 0,3.361 -0.385,7.344 -1.152,11.953 -0.768,3.936 -1.537,7.883 -2.303,11.844 -0.77,3.959 -1.152,6.275 -1.152,6.947 0,1.969 0.592,3.504 1.777,4.609 0.426,-0.914 0.828,-1.801 1.207,-2.664 0.568,-1.346 1.09,-2.018 1.564,-2.018 0.33,0 0.686,0.264 1.066,0.793 -0.096,1.152 0.023,2.279 0.359,3.385 0.336,1.104 0.506,1.918 0.506,2.447 0,0.959 0.035,2.398 0.107,4.32 0.072,1.918 0.107,3.336 0.107,4.248 0,1.342 -0.676,2.016 -2.025,2.016 -0.436,0 -0.918,-0.098 -1.449,-0.289 -3.473,-1.295 -6.127,-3.912 -7.961,-7.848 -1.545,-3.311 -2.316,-7.031 -2.316,-11.16 0,-2.064 0.623,-7.176 1.873,-15.336 -2.641,1.346 -4.777,2.018 -6.408,2.018 -1.633,0 -2.977,-0.602 -4.033,-1.801 -1.056,-1.199 -1.584,-2.641 -1.584,-4.32 0,-3.456 2.137,-7.031 6.408,-10.728 3.504,-3.071 7.248,-5.352 11.232,-6.84 0.479,-0.191 0.91,-0.288 1.295,-0.288 l 0.145,0.072 c 0,1.825 -1.367,3.792 -4.104,5.904 -2.496,1.825 -4.992,3.648 -7.488,5.472 -2.689,2.257 -4.031,4.441 -4.031,6.553 0,1.295 0.311,1.943 0.936,1.943 -0.193,0 0.145,-0.023 1.008,-0.072 3.6,-1.823 6.863,-5.543 9.793,-11.16 0.383,-0.815 1.104,-1.224 2.158,-1.224 2.977,0 4.465,0.409 4.465,1.224 z" />
	<path
   style="fill:#a7c136"
   id="path946"
   d="m 501.871,292.586 c 1.775,0 2.664,1.052 2.664,3.155 0,2.486 -1.152,6.622 -3.457,12.407 0,0.191 0,0.479 0,0.86 0,0.335 0,0.622 0,0.86 0,0.623 0.168,0.934 0.504,0.934 0.336,0 1.621,-0.756 3.854,-2.269 2.23,-1.512 3.658,-2.269 4.283,-2.269 0.336,0 0.504,0.121 0.504,0.361 0,0.575 -1.295,2.544 -3.889,5.902 -2.688,3.555 -4.512,5.328 -5.471,5.328 -1.393,0 -2.785,-0.479 -4.176,-1.439 -1.393,-0.959 -2.088,-2.088 -2.088,-3.383 0,0.24 -0.145,-1.08 -0.434,-3.961 -3.455,5.857 -6.504,8.783 -9.143,8.783 -1.729,0 -3.373,-0.84 -4.934,-2.525 -1.559,-1.686 -2.34,-3.395 -2.34,-5.127 0,-1.974 1.199,-5.391 3.602,-10.254 2.494,-5.053 4.51,-7.581 6.047,-7.581 0.768,0 1.439,0.313 2.016,0.936 0.576,0.625 0.865,1.321 0.865,2.088 0,1.249 -0.865,3.589 -2.592,7.02 -1.729,3.433 -2.592,5.484 -2.592,6.156 0,0.48 0.143,0.912 0.432,1.295 1.535,-1.055 3.215,-2.687 5.039,-4.895 2.639,-3.216 4.152,-5.016 4.537,-5.4 0.383,-0.384 1.27,-1.608 2.664,-3.672 1.104,-1.536 2.135,-2.544 3.096,-3.024 0.335,-0.189 0.673,-0.286 1.009,-0.286 z" />
	<path
   style="fill:#a7c136"
   id="path948"
   d="m 520.592,307.202 c 0,0.48 0.287,1.08 0.863,1.8 0.576,0.721 1.225,1.08 1.943,1.08 0.768,0 2.125,-0.659 4.068,-1.98 1.943,-1.318 3.252,-1.979 3.924,-1.979 0.336,0 0.504,0.097 0.504,0.288 0,0.864 -2.041,3.408 -6.119,7.633 -2.16,2.256 -4.32,3.383 -6.48,3.383 -1.633,0 -3.096,-0.6 -4.393,-1.799 -1.295,-1.199 -2.135,-2.617 -2.52,-4.248 -0.336,-1.393 -0.457,-3.024 -0.359,-4.896 -4.656,4.273 -7.561,6.385 -8.713,6.336 h -0.287 c -0.096,-0.047 -0.145,-0.168 -0.145,-0.359 0,0.143 0.121,-0.119 0.359,-0.793 0.721,-0.623 1.682,-1.656 2.881,-3.096 1.344,-1.631 2.279,-2.688 2.809,-3.168 1.727,-2.256 3.479,-4.512 5.256,-6.768 2.494,-3.071 4.631,-4.608 6.408,-4.608 1.535,0 2.303,1.44 2.303,4.32 0,1.152 -0.385,2.664 -1.152,4.537 -0.767,1.869 -1.15,3.309 -1.15,4.317 z m 12.814,-36.288 c 0,1.152 -0.637,2.137 -1.908,2.952 -1.271,0.817 -2.531,1.224 -3.779,1.224 -1.344,0 -2.76,-0.456 -4.248,-1.368 -1.729,-1.008 -2.592,-2.16 -2.592,-3.456 0,-1.152 0.672,-2.111 2.016,-2.88 1.104,-0.671 2.279,-1.008 3.529,-1.008 1.295,0 2.734,0.432 4.318,1.296 1.776,0.961 2.664,2.041 2.664,3.24 z" />
	<path
   style="fill:#a7c136"
   id="path950"
   d="m 552.775,298.562 c 0,1.296 -0.432,2.617 -1.297,3.96 -0.863,1.345 -2.016,2.353 -3.455,3.024 -1.105,0.48 -2.857,0.889 -5.256,1.223 -2.4,0.337 -4.225,0.457 -5.473,0.361 -0.385,0.336 -0.576,1.248 -0.576,2.734 0,0.865 0.336,1.609 1.008,2.232 0.672,0.625 1.465,0.938 2.377,0.938 2.639,0 7.031,-1.775 13.176,-5.329 5.52,-3.168 9.551,-5.951 12.096,-8.352 l -0.432,0.288 0.145,-0.072 0.936,1.225 c -2.689,3.936 -5.377,7.872 -8.064,11.807 -3.793,4.85 -7.537,7.273 -11.232,7.273 -4.463,0 -8.207,-1.008 -11.23,-3.025 -3.553,-2.303 -5.328,-5.566 -5.328,-9.791 0,-3.552 1.738,-6.912 5.219,-10.081 3.48,-3.168 6.996,-4.752 10.549,-4.752 4.556,10e-4 6.837,2.114 6.837,6.337 z m -14.183,4.392 c 0.768,0.048 1.342,0.072 1.727,0.072 1.297,0 2.545,-0.659 3.744,-1.979 1.199,-1.32 1.801,-2.628 1.801,-3.925 0,-0.432 -0.264,-0.6 -0.793,-0.504 -2.062,0.913 -3.48,1.656 -4.248,2.232 -1.536,1.152 -2.28,2.52 -2.231,4.104 z" />
	<path
   style="fill:#a7c136"
   id="path952"
   d="m 583.23,308.715 c 0.047,0.912 -1.561,3.359 -4.824,7.344 -3.455,4.223 -6.072,6.336 -7.848,6.336 -2.352,0 -4.297,-1.379 -5.832,-4.137 -1.248,-2.275 -1.871,-4.67 -1.871,-7.188 0,-2.66 0.238,-4.885 0.719,-6.676 h -0.072 c -0.385,-0.047 -1.439,0.924 -3.168,2.916 -1.727,1.992 -2.951,2.988 -3.672,2.988 -0.287,0 -0.527,-0.096 -0.719,-0.289 -0.191,-0.191 -0.24,-0.385 -0.145,-0.578 2.16,-3.415 4.32,-6.855 6.48,-10.32 3.455,-5.629 5.615,-10.177 6.479,-13.642 -10.465,0.049 -16.727,-0.36 -18.791,-1.227 -0.432,-0.192 -0.648,-0.577 -0.648,-1.155 0,-0.336 0.121,-0.673 0.359,-1.01 2.498,-0.721 3.889,-1.106 4.178,-1.154 0.768,-0.192 2.184,-0.289 4.246,-0.289 h 12.168 c 2.594,-7.002 5.592,-13.266 9,-18.792 h 0.072 l 0.576,1 c -0.047,3.383 -1.152,8.766 -3.311,16.148 -0.098,0.238 -0.266,0.786 -0.506,1.644 h 9.938 c 1.871,0 4.654,0 8.352,0 3.695,0 6.48,0 8.352,0 1.535,0 2.305,0.529 2.305,1.584 0,2.16 -1.609,3.24 -4.824,3.24 h -25.488 c -2.447,8.928 -3.672,15.528 -3.672,19.799 0,1.008 0.096,2.425 0.287,4.248 0.191,1.824 0.289,3.193 0.289,4.104 l 0.791,0.648 c 1.729,-0.047 3.877,-1.223 6.445,-3.527 2.566,-2.305 3.924,-3.456 4.068,-3.456 0.189,0 0.311,0.071 0.359,0.216 0.047,0.145 0.047,0.336 0,0.576 -0.048,0.336 -0.072,0.553 -0.072,0.649 z" />
	<path
   style="fill:#a7c136"
   id="path954"
   d="m 603.463,303.891 c 0,3.696 -1.105,7.225 -3.312,10.584 -2.496,3.791 -5.545,5.688 -9.145,5.688 -3.023,0 -5.354,-1.008 -6.984,-3.023 -1.439,-1.775 -2.16,-4.057 -2.16,-6.84 0,-3.696 1.584,-7.607 4.752,-11.736 3.359,-4.416 6.77,-6.624 10.225,-6.624 4.415,-0.002 6.624,3.983 6.624,11.951 z m -6.408,-6.625 c -2.402,0 -4.465,1.561 -6.193,4.68 -1.488,2.735 -2.23,5.399 -2.23,7.991 0,0.721 0.275,1.297 0.826,1.729 0.553,0.432 1.189,0.648 1.908,0.648 1.393,0 2.809,-1.297 4.248,-3.889 1.344,-2.398 2.018,-4.367 2.018,-5.903 -10e-4,-3.502 -0.194,-5.256 -0.577,-5.256 z" />
	<path
   style="fill:#a7c136"
   id="path956"
   d="m 628.373,294.386 c -0.385,-0.576 -1.199,-0.864 -2.447,-0.864 -1.777,0 -3.553,0.457 -5.328,1.368 -1.92,1.057 -2.881,2.28 -2.881,3.672 0,1.488 1.297,3.168 3.889,5.039 2.352,1.729 4.703,3.434 7.057,5.113 2.592,2.303 3.887,4.705 3.887,7.199 0,3.504 -1.799,5.615 -5.4,6.336 -2.496,0.527 -4.031,0.793 -4.607,0.793 -0.961,0 -2.545,-0.338 -4.752,-1.008 -2.879,-0.914 -5.195,-2.102 -6.947,-3.564 -1.754,-1.465 -3.301,-3.492 -4.645,-6.084 -0.145,-0.24 -0.217,-0.457 -0.217,-0.648 0,-1.055 0.553,-1.584 1.656,-1.584 0.48,0 2.064,0.553 4.752,1.656 2.688,1.103 4.824,1.656 6.408,1.656 2.688,0 4.033,-0.623 4.033,-1.873 0,-0.863 -0.984,-2.231 -2.953,-4.104 -1.344,-1.199 -2.713,-2.399 -4.104,-3.6 -0.961,-1.008 -1.439,-2.232 -1.439,-3.672 0,-1.92 0.6,-3.528 1.799,-4.825 1.393,-1.487 2.279,-2.376 2.664,-2.664 1.008,-0.912 2.088,-1.631 3.24,-2.16 1.873,-0.816 3.936,-1.224 6.191,-1.224 2.783,0 5.088,0.648 6.912,1.944 2.064,1.44 3.098,3.553 3.098,6.336 0,1.825 -0.746,3.373 -2.232,4.643 -1.488,1.273 -3.145,1.908 -4.969,1.908 -1.393,0 -2.676,-0.504 -3.852,-1.512 -1.178,-1.008 -1.764,-2.207 -1.764,-3.6 0,-0.96 0.49,-1.908 1.475,-2.844 0.985,-0.936 1.476,-1.545 1.476,-1.833 z" />
</g>
<path
   style="fill:#a7c136"
   id="path960"
   d="m 82.117872,28.634993 -0.251,-0.078 c -8.537,-2.69 -16.517,-1.892 -24.44,2.234 v 0 l -0.08,0.253 -0.584,0.09 c -7.341,4.035 -12.318,10.198 -14.929,18.482 0,0 0,0 -0.079,0.251 -2.058,6.53 -2.12,12.855 0.234,19.396 0.359,1.494 1.219,3.145 1.907,4.464 0.172,0.332 0.172,0.332 0.342,0.663 5.282,-2.754 10.596,-3.84 16.184,-3.182 -1.268,-1.229 -2.456,-2.71 -3.065,-4.281 -1.031,-1.979 -1.562,-3.802 -1.843,-5.546 -0.29,-2.577 -0.41,-4.822 0.381,-7.333 0.95,-3.014 2.825,-5.458 4.871,-7.573 1.066,-0.769 2.139,-1.536 3.13,-2.052 l 0.66,-0.345 c 1.321,-0.686 2.562,-1.122 3.803,-1.562 2.985,-0.715 5.986,-0.597 8.999,0.354 2.262,0.712 4.36,1.926 6.054,3.562 1.521,1.307 2.633,3.037 3.743,4.768 0.86,1.651 1.391,3.476 1.745,4.967 2.587,-4.703 6.772,-8.353 11.804998,-11.187 0.08,-0.249 -0.091,-0.58 -0.341,-0.66 -0.609998,-1.571 -1.549998,-2.97 -2.566998,-4.119 -3.757,-5.602 -8.978,-9.178 -15.679,-11.566 z" />
<path
   style="fill:#389898"
   id="path962"
   d="m 43.579872,74.733993 c -1.572,0.608 -2.973,1.548 -4.374,2.486 -5.428,4.084 -9.003,9.31 -11.139,16.086 v 0 c -0.316,1.006 -0.554,1.759 -0.791,2.513 -1.717,7.188997 -0.854,14.083997 2.256,20.860997 0.172,0.33 0.346,0.659 0.519,0.989 0,0 0,0 0.251,0.079 l 0.09,0.583 c 4.038,7.343 10.195,12.317 18.483,14.93 v 0 c 6.527,2.057 13.108,2.2 19.566,0.096 1.573,-0.61 3.146,-1.22 4.546,-2.158 0.251,0.078 0.579,-0.094 0.658,-0.343 5.284,-2.75 9.22,-6.48 12.059,-11.106 1.293,-2.354 2.256,-4.535 3.047,-7.046 0.553,-1.756 0.777,-3.34 1.003,-4.927 0.316,-1.003 0.302,-1.838 0.539,-2.591 0.406,-5.669997 -0.681,-10.977997 -3.435,-16.263997 0,0 0,0 -0.17,-0.331 0,0 0,0 -0.171,-0.329 0,0 0,0 0.078,-0.25 l -0.329,0.172 -0.095,-0.581 c -0.173,-0.332 -0.343,-0.662 -0.515,-0.992 -2.659,-4.703 -6.468,-8.386 -10.922,-10.892 -1.599,-1.06 -3.275,-1.862 -5.287,-2.496 -0.421,-0.408 -0.926,-0.566 -1.676,-0.804 -2.512,-0.791 -4.851,-1.253 -7.351,-1.211 -5.588,-0.658 -10.901,0.428 -16.184,3.182 -0.248,-0.078 -0.577,0.092 -0.656,0.344 z m 19.604,12.249 c 1.505,0.474 3.011,0.948 4.107,1.848 0.927,0.566 1.854,1.133 2.696,1.955 1.272,1.225 2.29,2.376 2.897,3.946 l 0.345,0.659 c 0.86,1.651 1.47,3.224 1.744,4.967997 0.096,0.583 0.11,1.415 0.201,1.997 -0.053,1.912 -0.354,3.753 -0.733,5.838 -1.044,2.432 -2.339,4.785 -3.978,6.479 -1.225,1.269 -2.704,2.458 -4.354,3.317 -1.901,0.781 -3.728,1.312 -5.803,1.762 -2.245,0.12 -4.661,-0.088 -6.923,-0.801 -3.013,-0.949 -5.539,-2.575 -7.575,-4.872 -0.846,-0.816 -1.36,-1.809 -2.127,-2.878 l -0.517,-0.991 c -0.437,-1.242 -0.954,-2.232 -1.139,-3.394 -0.715,-2.985 -0.928,-5.812 0.102,-9.077997 0.713,-2.262 2.176,-4.282 3.812,-5.975 1.06,-1.599 2.79,-2.712 4.519,-3.822 1.651,-0.86 3.474,-1.391 5.216,-1.666 2.328,-0.372 5.078,-0.336 7.51,0.708 z" />
<path
   style="fill:#389898"
   id="path964"
   d="m 125.55987,42.322993 c -0.253,-0.078 -0.253,-0.078 -0.253,-0.078 -6.529,-2.059 -13.188,-1.949 -19.476,0.487 -1.493,0.358 -2.812,1.045 -4.463,1.905 -0.253,-0.08 -0.332,0.173 -0.664,0.342 -5.031998,2.834 -9.217998,6.483 -11.804998,11.187 -1.542,2.275 -2.506,4.454 -3.124,7.297 -0.237,0.753 -0.474,1.506 -0.791,2.511 -0.237,0.754 -0.225,1.585 -0.461,2.338 0.011,0.834 -0.226,1.587 -0.214,2.418 -0.576,5.339 0.511,10.649 3.012,15.855 0,0 0.248,0.078 0.17,0.329 0.253,0.079 0.174,0.329 0.427,0.409 0,0 0,0 -0.079,0.25 0,0 0,0 0.25,0.079 l 0.341,0.663 c 0.174,0.328 0.348,0.658 0.52,0.987 2.657,4.703 6.212,8.309 10.667,10.817997 1.600998,1.055 3.279998,1.857 5.035998,2.411 0.755,0.238 1.255,0.396 2.012,0.633 2.509,0.791 4.85,1.255 7.265,1.466 5.592,0.656 10.9,-0.432 16.438,-3.102 0,0 0.329,-0.174 0.659,-0.348 1.321,-0.686 2.723,-1.624997 4.12,-2.563997 5.35,-3.836 9.006,-9.306 11.313,-15.757 0.08,-0.251 0.08,-0.251 0.08,-0.251 2.689,-8.538 1.973,-16.767 -1.984,-24.364 -0.171,-0.329 -0.171,-0.329 -0.171,-0.329 l -0.425,-0.408 c -4.035,-7.344 -10.118,-12.573 -18.4,-15.184 z m 3.061,19.182 c 0.768,1.072 1.614,1.889 2.051,3.132 l 0.345,0.662 c 0.437,1.238 1.123,2.562 1.561,3.804 0.464,2.907 0.348,5.905 -0.349,8.997 -0.792,2.512 -1.93,4.36 -3.645,6.307 -1.229,1.267 -2.708,2.457 -4.688,3.487 -1.572,0.61 -3.396,1.141 -5.141,1.418 -2.403,0.623 -5.073,0.334 -7.583,-0.456 -1.507,-0.475 -3.015,-0.949 -3.858,-1.77 -1.177,-0.647 -2.103,-1.214 -2.951,-2.031 -1.018,-1.15 -2.034,-2.3 -2.895,-3.949 l -0.517,-0.991 c -0.606,-1.571 -1.216998,-3.145 -1.322998,-4.559 -0.345,-0.659 -0.437,-1.241 -0.2,-1.994 -0.279,-1.744 0.103,-3.831 0.656998,-5.59 0.87,-2.762 2.085,-4.862 4.053,-6.728 0.978,-1.348 2.458,-2.538 4.358,-3.32 1.651,-0.859 3.552,-1.641 5.296,-1.919 2.576,-0.29 4.996,-0.08 7.178,0.882 3.012,0.949 5.536,2.571 7.651,4.618 z" />
<path
   style="fill:#a7c136"
   id="path966"
   d="m 132.61387,106.65299 c -0.606,-1.571 -1.217,-3.144 -2.156,-4.545 0.079,-0.25 -0.17,-0.329 -0.092,-0.578 -5.537,2.67 -10.846,3.758 -16.438,3.102 1.272,1.225 2.461,2.704 3.321,4.355 0.781,1.902 1.561,3.806 1.76,5.801 0.12,2.246 -0.089,4.662 -0.549,7.003 -1.281,3.187 -2.826,5.46 -4.872,7.575 -1.071,0.766 -1.888,1.611 -3.132,2.049 l -0.989,0.516 c -1.068,0.766 -2.232,0.954 -3.475,1.388 -2.907,0.463 -5.906,0.35 -8.745998,-0.271 -2.432,-1.041 -4.534,-2.257 -6.306,-3.643 -1.441,-1.559 -2.63,-3.039 -3.49,-4.689 -1.109,-1.73 -1.642,-3.553 -1.747,-4.966 -2.839,4.626 -6.774,8.356 -12.059,11.106 0.174,0.329 0.347,0.659 0.347,0.659 0.859,1.651 1.547,2.973 2.737,4.453 3.836,5.349 9.055,8.924 15.506,11.233 0,0 0.252,0.079 0.503,0.158 0.752,0.237 1.505,0.474 2.589,0.539 6.935998,1.636 13.754998,1.023 20.607998,-2.337 0.252,0.08 0.665,-0.344 0.994,-0.518 0,0 0,0 0.25,0.079 l 0.079,-0.251 0.328,-0.171 c 7.426,-4.286 12.572,-10.114 15.185,-18.402 v 0 c 2.137,-6.777 1.95,-13.186 -0.156,-19.645 z" />
<g
   transform="translate(-137.66013,-212.57401)"
   id="g984">
	<g
   id="g982">
		<path
   style="fill:#389898"
   id="path968"
   d="m 503.803,359.108 c 0,2.344 -0.651,4.241 -1.953,5.693 -1.302,1.452 -2.956,2.178 -4.961,2.178 -2.278,0 -4.108,-0.332 -5.488,-0.996 v -2.07 c 0.677,0.378 1.517,0.677 2.52,0.898 1.003,0.221 1.992,0.332 2.969,0.332 1.458,0 2.656,-0.554 3.594,-1.66 0.938,-1.106 1.406,-2.513 1.406,-4.219 0,-1.575 -0.332,-2.825 -0.996,-3.75 -0.664,-0.925 -1.934,-1.849 -3.809,-2.773 -1.472,-0.742 -2.571,-1.462 -3.301,-2.158 -0.73,-0.696 -1.27,-1.507 -1.621,-2.432 -0.351,-0.925 -0.527,-2.031 -0.527,-3.32 0,-1.406 0.286,-2.656 0.859,-3.75 0.573,-1.094 1.374,-1.943 2.402,-2.549 1.028,-0.606 2.155,-0.908 3.379,-0.908 1.106,0 2.112,0.124 3.018,0.371 0.906,0.247 1.618,0.515 2.139,0.801 l -0.742,1.836 c -1.445,-0.742 -2.917,-1.113 -4.414,-1.113 -1.406,0 -2.549,0.479 -3.428,1.436 -0.879,0.957 -1.318,2.224 -1.318,3.799 0,1.602 0.319,2.845 0.957,3.73 0.638,0.885 1.888,1.804 3.75,2.754 1.927,0.938 3.337,2.034 4.229,3.291 0.892,1.257 1.336,2.783 1.336,4.579 z" />
		<path
   style="fill:#389898"
   id="path970"
   d="m 526.998,366.589 h -10.352 v -28.555 h 10.352 v 1.836 h -8.438 v 10.84 h 7.969 v 1.836 h -7.969 v 12.207 h 8.438 z" />
		<path
   style="fill:#389898"
   id="path972"
   d="m 550.545,338.034 h 1.973 l -6.758,28.555 h -2.129 l -6.719,-28.555 h 1.992 l 4.648,20.078 c 0.364,1.536 0.605,2.666 0.723,3.389 0.118,0.723 0.234,1.631 0.352,2.725 0.104,-0.755 0.215,-1.497 0.332,-2.227 0.117,-0.73 0.231,-1.345 0.342,-1.846 0.111,-0.501 1.858,-7.874 5.244,-22.119 z" />
		<path
   style="fill:#389898"
   id="path974"
   d="m 563.643,366.589 v -28.555 h 1.914 v 28.555 z" />
		<path
   style="fill:#389898"
   id="path976"
   d="m 579.807,366.589 v -28.555 h 1.914 v 26.719 h 8.047 v 1.836 z" />
		<path
   style="fill:#389898"
   id="path978"
   d="m 601.693,366.589 v -28.555 h 1.914 v 26.719 h 8.047 v 1.836 z" />
		<path
   style="fill:#389898"
   id="path980"
   d="m 634.381,366.589 -2.52,-10.352 h -6.934 l -2.48,10.352 h -1.992 l 6.875,-28.555 h 1.973 l 7.031,28.555 z m -2.969,-12.285 -2.52,-10.645 c -0.261,-1.198 -0.462,-2.331 -0.605,-3.398 -0.117,1.133 -0.3,2.266 -0.547,3.398 l -2.441,10.645 z" />
	</g>
</g>
<circle
   style="fill:#ffffff"
   id="circle986"
   r="36.159"
   cy="85.458008"
   cx="88.065872" />
<path
   style="fill:#a7c136"
   id="path988"
   d="m 85.658872,57.850993 -0.121,-0.038 c -4.122,-1.299 -7.976,-0.913 -11.802,1.08 v 0 l -0.039,0.121 -0.282,0.043 c -3.545,1.949 -5.948,4.925 -7.208,8.926 0,0 0,0 -0.039,0.121 -0.993,3.153 -1.023,6.207 0.113,9.366 0.174,0.721 0.589,1.519 0.922,2.155 0.082,0.16 0.082,0.16 0.165,0.319 2.551,-1.329 5.116,-1.854 7.814,-1.536 -0.612,-0.593 -1.187,-1.308 -1.48,-2.066 -0.498,-0.956 -0.755,-1.836 -0.89,-2.679 -0.141,-1.245 -0.198,-2.329 0.184,-3.541 0.459,-1.455 1.364,-2.636 2.352,-3.656 0.516,-0.372 1.033,-0.742 1.512,-0.991 l 0.319,-0.167 c 0.638,-0.331 1.237,-0.541 1.836,-0.753 1.441,-0.346 2.891,-0.289 4.345,0.17 1.093,0.344 2.106,0.931 2.924,1.72 0.735,0.631 1.271,1.467 1.808,2.303 0.416,0.797 0.671,1.678 0.843,2.397 1.249,-2.271 3.27,-4.032 5.7,-5.401 0.039,-0.12 -0.044,-0.28 -0.165,-0.318 -0.294,-0.759 -0.748,-1.435 -1.239,-1.989 -1.816,-2.706 -4.336,-4.433 -7.572,-5.586 z" />
<path
   style="fill:#389898"
   id="path990"
   d="m 66.881872,79.943993 c -0.759,0.293 -1.436,0.747 -2.112,1.2 -2.621,1.972 -4.348,4.495 -5.379,7.768 v 0 c -0.152,0.485 -0.267,0.849 -0.382,1.213 -0.829,3.472 -0.412,6.801 1.09,10.072997 0.082,0.159 0.166,0.319 0.25,0.478 0,0 0,0 0.121,0.039 l 0.043,0.281 c 1.95,3.546 4.924,5.948 8.926,7.209 v 0 c 3.151,0.993 6.33,1.062 9.448,0.047 0.76,-0.295 1.519,-0.589 2.195,-1.043 0.121,0.038 0.279,-0.044 0.317,-0.165 2.552,-1.328 4.452,-3.129 5.823,-5.363 0.624,-1.137 1.089,-2.189997 1.471,-3.401997 0.268,-0.848 0.376,-1.612 0.485,-2.379 0.152,-0.484 0.145,-0.887 0.26,-1.251 0.196,-2.738 -0.328,-5.301 -1.658,-7.854 0,0 0,0 -0.083,-0.159 0,0 0,0 -0.082,-0.159 0,0 0,0 0.037,-0.121 l -0.158,0.083 -0.046,-0.281 c -0.084,-0.16 -0.165,-0.319 -0.249,-0.479 -1.283,-2.271 -3.123,-4.049 -5.273,-5.26 -0.771,-0.511 -1.582,-0.899 -2.554,-1.205 -0.202,-0.197 -0.446,-0.273 -0.809,-0.388 -1.213,-0.382 -2.342,-0.604 -3.549,-0.585 -2.699,-0.317 -5.265,0.206 -7.814,1.536 -0.121,-0.038 -0.28,0.045 -0.318,0.167 z m 9.466,5.914 c 0.728,0.229 1.454,0.458 1.983,0.893 0.447,0.273 0.896,0.547 1.302,0.944 0.614,0.591 1.106,1.146 1.399,1.905 l 0.167,0.318 c 0.415,0.797 0.709,1.556 0.842,2.398 0.046,0.281 0.054,0.684 0.098,0.965 -0.026,0.923 -0.172,1.812 -0.354,2.818 -0.505,1.175 -1.13,2.311 -1.921,3.129 -0.592,0.612 -1.306,1.186997 -2.103,1.601997 -0.919,0.378 -1.8,0.634 -2.803,0.851 -1.084,0.058 -2.25,-0.043 -3.342,-0.387 -1.455,-0.458 -2.675,-1.243 -3.658,-2.352997 -0.409,-0.395 -0.657,-0.874 -1.027,-1.39 l -0.249,-0.479 c -0.211,-0.601 -0.462,-1.078 -0.55,-1.639 -0.346,-1.441 -0.448,-2.807 0.048,-4.384 0.345,-1.092 1.052,-2.067 1.842,-2.885 0.511,-0.772 1.347,-1.31 2.183,-1.846 0.797,-0.416 1.677,-0.672 2.518,-0.805 1.123,-0.177 2.451,-0.159 3.625,0.345 z" />
<path
   style="fill:#389898"
   id="path992"
   d="m 106.63587,64.460993 c -0.122,-0.038 -0.122,-0.038 -0.122,-0.038 -3.152,-0.994 -6.368,-0.941 -9.403998,0.235 -0.721,0.173 -1.357,0.504 -2.155,0.92 -0.121,-0.039 -0.16,0.084 -0.32,0.165 -2.431,1.369 -4.451,3.131 -5.7,5.401 -0.744,1.1 -1.21,2.151 -1.509,3.523 -0.114,0.364 -0.229,0.728 -0.382,1.213 -0.114,0.364 -0.108,0.766 -0.223,1.129 0.005,0.403 -0.108,0.766 -0.104,1.167 -0.277,2.578 0.247,5.144 1.454,7.657 0,0 0.12,0.037 0.083,0.158 0.122,0.039 0.084,0.159 0.206,0.198 0,0 0,0 -0.039,0.12 0,0 0,0 0.121,0.039 l 0.165,0.32 c 0.084,0.157 0.167,0.317 0.251,0.476 1.282,2.272 2.999,4.013 5.15,5.225 0.772,0.509 1.584,0.896 2.432,1.164 0.365,0.115 0.605,0.191 0.972,0.306 1.212,0.382 2.342,0.605 3.507998,0.708 2.7,0.316 5.264,-0.208 7.938,-1.498 0,0 0.159,-0.084 0.318,-0.167 0.638,-0.332 1.314,-0.785 1.989,-1.239 2.584,-1.853 4.349,-4.493 5.463,-7.608 0.039,-0.121 0.039,-0.121 0.039,-0.121 1.299,-4.123 0.953,-8.097 -0.959,-11.766 -0.082,-0.158 -0.082,-0.158 -0.082,-0.158 l -0.205,-0.197 c -1.949,-3.547 -4.885,-6.072 -8.885,-7.332 z m 1.478,9.262 c 0.371,0.519 0.779,0.912 0.99,1.513 l 0.166,0.319 c 0.212,0.598 0.543,1.237 0.754,1.837 0.225,1.403 0.168,2.852 -0.168,4.345 -0.383,1.213 -0.932,2.105 -1.76,3.046 -0.594,0.611 -1.309,1.186 -2.264,1.684 -0.76,0.294 -1.64,0.55 -2.482,0.685 -1.16,0.301 -2.449,0.161 -3.661998,-0.22 -0.728,-0.229 -1.455,-0.459 -1.863,-0.854 -0.567,-0.313 -1.015,-0.586 -1.425,-0.981 -0.491,-0.556 -0.981,-1.11 -1.397,-1.906 l -0.25,-0.479 c -0.292,-0.759 -0.587,-1.519 -0.639,-2.201 -0.166,-0.318 -0.21,-0.6 -0.097,-0.963 -0.135,-0.842 0.05,-1.85 0.317,-2.699 0.421,-1.334 1.008,-2.348 1.957,-3.248 0.473,-0.651 1.188,-1.227 2.104,-1.604 0.798,-0.415 1.715998,-0.792 2.557998,-0.926 1.244,-0.14 2.412,-0.038 3.466,0.426 1.455,0.454 2.674,1.239 3.695,2.226 z" />
<path
   style="fill:#a7c136"
   id="path994"
   d="m 110.04187,95.523993 c -0.292,-0.758 -0.587,-1.518 -1.041,-2.194 0.038,-0.12 -0.082,-0.159 -0.044,-0.279 -2.674,1.29 -5.237,1.814 -7.938,1.498 0.614,0.592 1.188,1.306 1.604,2.103 0.377,0.919 0.753,1.839 0.849,2.802 0.059,1.084997 -0.042,2.250997 -0.265,3.381997 -0.618,1.539 -1.364,2.636 -2.353,3.657 -0.517,0.37 -0.910998,0.778 -1.512998,0.989 l -0.478,0.25 c -0.516,0.369 -1.077,0.46 -1.678,0.67 -1.403,0.223 -2.853,0.169 -4.223,-0.131 -1.175,-0.503 -2.189,-1.09 -3.045,-1.76 -0.697,-0.752 -1.271,-1.467 -1.686,-2.264 -0.536,-0.836 -0.793,-1.716 -0.844,-2.398 -1.371,2.234 -3.271,4.035 -5.822,5.363 0.084,0.159 0.167,0.318 0.167,0.318 0.415,0.798 0.747,1.436 1.321,2.15 1.853,2.583 4.372,4.31 7.487,5.424 0,0 0.122,0.039 0.243,0.077 0.363,0.114 0.727,0.229 1.251,0.26 3.349,0.79 6.642,0.494 9.950998,-1.128 0.121,0.039 0.321,-0.166 0.479,-0.25 0,0 0,0 0.121,0.038 l 0.038,-0.121 0.158,-0.082 c 3.586,-2.07 6.07,-4.885 7.332,-8.887 v 0 c 1.037,-3.273 0.947,-6.367997 -0.071,-9.486997 z" />
<ellipse
   ry="8.1487503"
   rx="0.41821"
   cy="99.465759"
   cx="466.2211"
   id="path1009"
   style="opacity:0.2;fill:#a7c136;fill-opacity:1;stroke:#a7c136;stroke-width:1.00157475;stroke-linejoin:round;stroke-miterlimit:4;stroke-dasharray:none;stroke-opacity:1" /><path
   transform="translate(-137.66013,-212.57401)"
   id="path1011"
   d="m 597.055,297.266 c 1.48102,3.93156 1.91028,8.25381 1.23149,12.39987 -0.18566,1.13404 -0.45271,2.25748 -0.53939,3.40334 -0.0867,1.14586 0.0183,2.33704 0.53939,3.36121 0.52813,1.03792 1.48081,1.85174 2.58851,2.21121 1.1077,0.35946 2.35671,0.26012 3.39366,-0.26991 1.03696,-0.53003 1.84903,-1.4842 2.20646,-2.59256 0.35744,-1.10835 0.25581,-2.35718 -0.27612,-3.39316"
   style="fill:#a7c136;fill-opacity:1;stroke:#a7c136;stroke-width:1px;stroke-linecap:butt;stroke-linejoin:miter;stroke-opacity:1" /></svg>